<mxfile host="65bd71144e">
    <diagram id="yUhnrMPaV8FbnhFTwWaH" name="Data Base">
        <mxGraphModel dx="1944" dy="1169" grid="0" gridSize="10" guides="1" tooltips="1" connect="1" arrows="1" fold="1" page="0" pageScale="1" pageWidth="827" pageHeight="1169" background="#EEEEEE" math="0" shadow="0">
            <root>
                <mxCell id="0"/>
                <mxCell id="1" parent="0"/>
                <mxCell id="fKlVXKqgQDIWuhwJHFet-24" value="Products" style="shape=table;startSize=20;container=1;collapsible=0;childLayout=tableLayout;fontStyle=1;align=center;flipH=1;fillColor=#F5AB50;strokeColor=#909090;fontColor=#1A1A1A;" parent="1" vertex="1">
                    <mxGeometry x="49" y="51" width="130" height="229" as="geometry"/>
                </mxCell>
                <mxCell id="fKlVXKqgQDIWuhwJHFet-25" value="" style="shape=partialRectangle;html=1;whiteSpace=wrap;collapsible=0;dropTarget=0;pointerEvents=0;fillColor=none;top=0;left=0;bottom=0;right=0;points=[[0,0.5],[1,0.5]];portConstraint=eastwest;strokeColor=#909090;fontColor=#1A1A1A;" parent="fKlVXKqgQDIWuhwJHFet-24" vertex="1">
                    <mxGeometry y="20" width="130" height="26" as="geometry"/>
                </mxCell>
                <mxCell id="fKlVXKqgQDIWuhwJHFet-26" value="PK" style="shape=partialRectangle;html=1;whiteSpace=wrap;connectable=0;fillColor=none;top=0;left=0;bottom=0;right=0;overflow=hidden;strokeColor=#909090;fontColor=#1A1A1A;" parent="fKlVXKqgQDIWuhwJHFet-25" vertex="1">
                    <mxGeometry width="30" height="26" as="geometry"/>
                </mxCell>
                <mxCell id="fKlVXKqgQDIWuhwJHFet-27" value="pid" style="shape=partialRectangle;html=1;whiteSpace=wrap;connectable=0;fillColor=none;top=0;left=0;bottom=0;right=0;overflow=hidden;fontStyle=0;align=left;strokeColor=#909090;fontColor=#1A1A1A;" parent="fKlVXKqgQDIWuhwJHFet-25" vertex="1">
                    <mxGeometry x="30" width="100" height="26" as="geometry"/>
                </mxCell>
                <mxCell id="53" style="shape=partialRectangle;html=1;whiteSpace=wrap;collapsible=0;dropTarget=0;pointerEvents=0;fillColor=none;top=0;left=0;bottom=0;right=0;points=[[0,0.5],[1,0.5]];portConstraint=eastwest;strokeColor=#909090;fontColor=#1A1A1A;" parent="fKlVXKqgQDIWuhwJHFet-24" vertex="1">
                    <mxGeometry y="46" width="130" height="23" as="geometry"/>
                </mxCell>
                <mxCell id="54" value="FK" style="shape=partialRectangle;html=1;whiteSpace=wrap;connectable=0;fillColor=none;top=0;left=0;bottom=0;right=0;overflow=hidden;strokeColor=#909090;fontColor=#1A1A1A;" parent="53" vertex="1">
                    <mxGeometry width="30" height="23" as="geometry"/>
                </mxCell>
                <mxCell id="55" value="categoryid" style="shape=partialRectangle;html=1;whiteSpace=wrap;connectable=0;fillColor=none;top=0;left=0;bottom=0;right=0;overflow=hidden;align=left;strokeColor=#909090;fontColor=#1A1A1A;" parent="53" vertex="1">
                    <mxGeometry x="30" width="100" height="23" as="geometry"/>
                </mxCell>
                <mxCell id="fKlVXKqgQDIWuhwJHFet-29" value="" style="shape=partialRectangle;html=1;whiteSpace=wrap;collapsible=0;dropTarget=0;pointerEvents=0;fillColor=none;top=0;left=0;bottom=0;right=0;points=[[0,0.5],[1,0.5]];portConstraint=eastwest;strokeColor=#909090;fontColor=#1A1A1A;" parent="fKlVXKqgQDIWuhwJHFet-24" vertex="1">
                    <mxGeometry y="69" width="130" height="23" as="geometry"/>
                </mxCell>
                <mxCell id="fKlVXKqgQDIWuhwJHFet-30" value="" style="shape=partialRectangle;html=1;whiteSpace=wrap;connectable=0;fillColor=none;top=0;left=0;bottom=0;right=0;overflow=hidden;strokeColor=#909090;fontColor=#1A1A1A;" parent="fKlVXKqgQDIWuhwJHFet-29" vertex="1">
                    <mxGeometry width="30" height="23" as="geometry"/>
                </mxCell>
                <mxCell id="fKlVXKqgQDIWuhwJHFet-31" value="barcode" style="shape=partialRectangle;html=1;whiteSpace=wrap;connectable=0;fillColor=none;top=0;left=0;bottom=0;right=0;overflow=hidden;align=left;strokeColor=#909090;fontColor=#1A1A1A;" parent="fKlVXKqgQDIWuhwJHFet-29" vertex="1">
                    <mxGeometry x="30" width="100" height="23" as="geometry"/>
                </mxCell>
                <mxCell id="fKlVXKqgQDIWuhwJHFet-33" value="" style="shape=partialRectangle;html=1;whiteSpace=wrap;collapsible=0;dropTarget=0;pointerEvents=0;fillColor=none;top=0;left=0;bottom=0;right=0;points=[[0,0.5],[1,0.5]];portConstraint=eastwest;strokeColor=#909090;fontColor=#1A1A1A;" parent="fKlVXKqgQDIWuhwJHFet-24" vertex="1">
                    <mxGeometry y="92" width="130" height="21" as="geometry"/>
                </mxCell>
                <mxCell id="fKlVXKqgQDIWuhwJHFet-34" value="" style="shape=partialRectangle;html=1;whiteSpace=wrap;connectable=0;fillColor=none;top=0;left=0;bottom=0;right=0;overflow=hidden;strokeColor=#909090;fontColor=#1A1A1A;" parent="fKlVXKqgQDIWuhwJHFet-33" vertex="1">
                    <mxGeometry width="30" height="21" as="geometry"/>
                </mxCell>
                <mxCell id="fKlVXKqgQDIWuhwJHFet-35" value="description" style="shape=partialRectangle;html=1;whiteSpace=wrap;connectable=0;fillColor=none;top=0;left=0;bottom=0;right=0;overflow=hidden;align=left;strokeColor=#909090;fontColor=#1A1A1A;" parent="fKlVXKqgQDIWuhwJHFet-33" vertex="1">
                    <mxGeometry x="30" width="100" height="21" as="geometry"/>
                </mxCell>
                <mxCell id="fKlVXKqgQDIWuhwJHFet-61" style="shape=partialRectangle;html=1;whiteSpace=wrap;collapsible=0;dropTarget=0;pointerEvents=0;fillColor=none;top=0;left=0;bottom=0;right=0;points=[[0,0.5],[1,0.5]];portConstraint=eastwest;strokeColor=#909090;fontColor=#1A1A1A;" parent="fKlVXKqgQDIWuhwJHFet-24" vertex="1">
                    <mxGeometry y="113" width="130" height="22" as="geometry"/>
                </mxCell>
                <mxCell id="fKlVXKqgQDIWuhwJHFet-62" style="shape=partialRectangle;html=1;whiteSpace=wrap;connectable=0;fillColor=none;top=0;left=0;bottom=0;right=0;overflow=hidden;strokeColor=#909090;fontColor=#1A1A1A;" parent="fKlVXKqgQDIWuhwJHFet-61" vertex="1">
                    <mxGeometry width="30" height="22" as="geometry"/>
                </mxCell>
                <mxCell id="fKlVXKqgQDIWuhwJHFet-63" value="referencelarge" style="shape=partialRectangle;html=1;whiteSpace=wrap;connectable=0;fillColor=none;top=0;left=0;bottom=0;right=0;overflow=hidden;align=left;strokeColor=#909090;fontColor=#1A1A1A;" parent="fKlVXKqgQDIWuhwJHFet-61" vertex="1">
                    <mxGeometry x="30" width="100" height="22" as="geometry"/>
                </mxCell>
                <mxCell id="fKlVXKqgQDIWuhwJHFet-58" style="shape=partialRectangle;html=1;whiteSpace=wrap;collapsible=0;dropTarget=0;pointerEvents=0;fillColor=none;top=0;left=0;bottom=0;right=0;points=[[0,0.5],[1,0.5]];portConstraint=eastwest;strokeColor=#909090;fontColor=#1A1A1A;" parent="fKlVXKqgQDIWuhwJHFet-24" vertex="1">
                    <mxGeometry y="135" width="130" height="22" as="geometry"/>
                </mxCell>
                <mxCell id="fKlVXKqgQDIWuhwJHFet-59" style="shape=partialRectangle;html=1;whiteSpace=wrap;connectable=0;fillColor=none;top=0;left=0;bottom=0;right=0;overflow=hidden;strokeColor=#909090;fontColor=#1A1A1A;" parent="fKlVXKqgQDIWuhwJHFet-58" vertex="1">
                    <mxGeometry width="30" height="22" as="geometry"/>
                </mxCell>
                <mxCell id="fKlVXKqgQDIWuhwJHFet-60" value="referencesmall" style="shape=partialRectangle;html=1;whiteSpace=wrap;connectable=0;fillColor=none;top=0;left=0;bottom=0;right=0;overflow=hidden;align=left;strokeColor=#909090;fontColor=#1A1A1A;" parent="fKlVXKqgQDIWuhwJHFet-58" vertex="1">
                    <mxGeometry x="30" width="100" height="22" as="geometry"/>
                </mxCell>
                <mxCell id="fKlVXKqgQDIWuhwJHFet-55" style="shape=partialRectangle;html=1;whiteSpace=wrap;collapsible=0;dropTarget=0;pointerEvents=0;fillColor=none;top=0;left=0;bottom=0;right=0;points=[[0,0.5],[1,0.5]];portConstraint=eastwest;strokeColor=#909090;fontColor=#1A1A1A;" parent="fKlVXKqgQDIWuhwJHFet-24" vertex="1">
                    <mxGeometry y="157" width="130" height="20" as="geometry"/>
                </mxCell>
                <mxCell id="fKlVXKqgQDIWuhwJHFet-56" style="shape=partialRectangle;html=1;whiteSpace=wrap;connectable=0;fillColor=none;top=0;left=0;bottom=0;right=0;overflow=hidden;strokeColor=#909090;fontColor=#1A1A1A;" parent="fKlVXKqgQDIWuhwJHFet-55" vertex="1">
                    <mxGeometry width="30" height="20" as="geometry"/>
                </mxCell>
                <mxCell id="fKlVXKqgQDIWuhwJHFet-57" value="buy" style="shape=partialRectangle;html=1;whiteSpace=wrap;connectable=0;fillColor=none;top=0;left=0;bottom=0;right=0;overflow=hidden;align=left;strokeColor=#909090;fontColor=#1A1A1A;" parent="fKlVXKqgQDIWuhwJHFet-55" vertex="1">
                    <mxGeometry x="30" width="100" height="20" as="geometry"/>
                </mxCell>
                <mxCell id="fKlVXKqgQDIWuhwJHFet-67" style="shape=partialRectangle;html=1;whiteSpace=wrap;collapsible=0;dropTarget=0;pointerEvents=0;fillColor=none;top=0;left=0;bottom=0;right=0;points=[[0,0.5],[1,0.5]];portConstraint=eastwest;strokeColor=#909090;fontColor=#1A1A1A;" parent="fKlVXKqgQDIWuhwJHFet-24" vertex="1">
                    <mxGeometry y="177" width="130" height="20" as="geometry"/>
                </mxCell>
                <mxCell id="fKlVXKqgQDIWuhwJHFet-68" style="shape=partialRectangle;html=1;whiteSpace=wrap;connectable=0;fillColor=none;top=0;left=0;bottom=0;right=0;overflow=hidden;strokeColor=#909090;fontColor=#1A1A1A;" parent="fKlVXKqgQDIWuhwJHFet-67" vertex="1">
                    <mxGeometry width="30" height="20" as="geometry"/>
                </mxCell>
                <mxCell id="fKlVXKqgQDIWuhwJHFet-69" value="sale" style="shape=partialRectangle;html=1;whiteSpace=wrap;connectable=0;fillColor=none;top=0;left=0;bottom=0;right=0;overflow=hidden;align=left;strokeColor=#909090;fontColor=#1A1A1A;" parent="fKlVXKqgQDIWuhwJHFet-67" vertex="1">
                    <mxGeometry x="30" width="100" height="20" as="geometry"/>
                </mxCell>
                <mxCell id="fKlVXKqgQDIWuhwJHFet-64" style="shape=partialRectangle;html=1;whiteSpace=wrap;collapsible=0;dropTarget=0;pointerEvents=0;fillColor=none;top=0;left=0;bottom=0;right=0;points=[[0,0.5],[1,0.5]];portConstraint=eastwest;strokeColor=#909090;fontColor=#1A1A1A;" parent="fKlVXKqgQDIWuhwJHFet-24" vertex="1">
                    <mxGeometry y="197" width="130" height="16" as="geometry"/>
                </mxCell>
                <mxCell id="fKlVXKqgQDIWuhwJHFet-65" style="shape=partialRectangle;html=1;whiteSpace=wrap;connectable=0;fillColor=none;top=0;left=0;bottom=0;right=0;overflow=hidden;strokeColor=#909090;fontColor=#1A1A1A;" parent="fKlVXKqgQDIWuhwJHFet-64" vertex="1">
                    <mxGeometry width="30" height="16" as="geometry"/>
                </mxCell>
                <mxCell id="fKlVXKqgQDIWuhwJHFet-66" value="stock" style="shape=partialRectangle;html=1;whiteSpace=wrap;connectable=0;fillColor=none;top=0;left=0;bottom=0;right=0;overflow=hidden;align=left;strokeColor=#909090;fontColor=#1A1A1A;" parent="fKlVXKqgQDIWuhwJHFet-64" vertex="1">
                    <mxGeometry x="30" width="100" height="16" as="geometry"/>
                </mxCell>
                <mxCell id="fKlVXKqgQDIWuhwJHFet-70" style="shape=partialRectangle;html=1;whiteSpace=wrap;collapsible=0;dropTarget=0;pointerEvents=0;fillColor=none;top=0;left=0;bottom=0;right=0;points=[[0,0.5],[1,0.5]];portConstraint=eastwest;strokeColor=#909090;fontColor=#1A1A1A;" parent="fKlVXKqgQDIWuhwJHFet-24" vertex="1">
                    <mxGeometry y="213" width="130" height="16" as="geometry"/>
                </mxCell>
                <mxCell id="fKlVXKqgQDIWuhwJHFet-71" style="shape=partialRectangle;html=1;whiteSpace=wrap;connectable=0;fillColor=none;top=0;left=0;bottom=0;right=0;overflow=hidden;strokeColor=#909090;fontColor=#1A1A1A;" parent="fKlVXKqgQDIWuhwJHFet-70" vertex="1">
                    <mxGeometry width="30" height="16" as="geometry"/>
                </mxCell>
                <mxCell id="fKlVXKqgQDIWuhwJHFet-72" value="existence" style="shape=partialRectangle;html=1;whiteSpace=wrap;connectable=0;fillColor=none;top=0;left=0;bottom=0;right=0;overflow=hidden;align=left;strokeColor=#909090;fontColor=#1A1A1A;" parent="fKlVXKqgQDIWuhwJHFet-70" vertex="1">
                    <mxGeometry x="30" width="100" height="16" as="geometry"/>
                </mxCell>
                <mxCell id="fKlVXKqgQDIWuhwJHFet-73" value="Users" style="shape=table;startSize=20;container=1;collapsible=0;childLayout=tableLayout;fontStyle=1;align=center;flipH=1;fillColor=#F5AB50;strokeColor=#909090;fontColor=#1A1A1A;" parent="1" vertex="1">
                    <mxGeometry x="399" y="328" width="130" height="254" as="geometry"/>
                </mxCell>
                <mxCell id="fKlVXKqgQDIWuhwJHFet-74" value="" style="shape=partialRectangle;html=1;whiteSpace=wrap;collapsible=0;dropTarget=0;pointerEvents=0;fillColor=none;top=0;left=0;bottom=0;right=0;points=[[0,0.5],[1,0.5]];portConstraint=eastwest;strokeColor=#909090;fontColor=#1A1A1A;" parent="fKlVXKqgQDIWuhwJHFet-73" vertex="1">
                    <mxGeometry y="20" width="130" height="26" as="geometry"/>
                </mxCell>
                <mxCell id="fKlVXKqgQDIWuhwJHFet-75" value="PK" style="shape=partialRectangle;html=1;whiteSpace=wrap;connectable=0;fillColor=none;top=0;left=0;bottom=0;right=0;overflow=hidden;strokeColor=#909090;fontColor=#1A1A1A;" parent="fKlVXKqgQDIWuhwJHFet-74" vertex="1">
                    <mxGeometry width="30" height="26" as="geometry"/>
                </mxCell>
                <mxCell id="fKlVXKqgQDIWuhwJHFet-76" value="uid" style="shape=partialRectangle;html=1;whiteSpace=wrap;connectable=0;fillColor=none;top=0;left=0;bottom=0;right=0;overflow=hidden;fontStyle=0;align=left;strokeColor=#909090;fontColor=#1A1A1A;" parent="fKlVXKqgQDIWuhwJHFet-74" vertex="1">
                    <mxGeometry x="30" width="100" height="26" as="geometry"/>
                </mxCell>
                <mxCell id="fKlVXKqgQDIWuhwJHFet-131" style="shape=partialRectangle;html=1;whiteSpace=wrap;collapsible=0;dropTarget=0;pointerEvents=0;fillColor=none;top=0;left=0;bottom=0;right=0;points=[[0,0.5],[1,0.5]];portConstraint=eastwest;strokeColor=#909090;fontColor=#1A1A1A;" parent="fKlVXKqgQDIWuhwJHFet-73" vertex="1">
                    <mxGeometry y="46" width="130" height="20" as="geometry"/>
                </mxCell>
                <mxCell id="fKlVXKqgQDIWuhwJHFet-132" value="FK" style="shape=partialRectangle;html=1;whiteSpace=wrap;connectable=0;fillColor=none;top=0;left=0;bottom=0;right=0;overflow=hidden;strokeColor=#909090;fontColor=#1A1A1A;" parent="fKlVXKqgQDIWuhwJHFet-131" vertex="1">
                    <mxGeometry width="30" height="20" as="geometry"/>
                </mxCell>
                <mxCell id="fKlVXKqgQDIWuhwJHFet-133" value="claims" style="shape=partialRectangle;html=1;whiteSpace=wrap;connectable=0;fillColor=none;top=0;left=0;bottom=0;right=0;overflow=hidden;align=left;strokeColor=#909090;fontColor=#1A1A1A;" parent="fKlVXKqgQDIWuhwJHFet-131" vertex="1">
                    <mxGeometry x="30" width="100" height="20" as="geometry"/>
                </mxCell>
                <mxCell id="fKlVXKqgQDIWuhwJHFet-77" value="" style="shape=partialRectangle;html=1;whiteSpace=wrap;collapsible=0;dropTarget=0;pointerEvents=0;fillColor=none;top=0;left=0;bottom=0;right=0;points=[[0,0.5],[1,0.5]];portConstraint=eastwest;strokeColor=#909090;fontColor=#1A1A1A;" parent="fKlVXKqgQDIWuhwJHFet-73" vertex="1">
                    <mxGeometry y="66" width="130" height="23" as="geometry"/>
                </mxCell>
                <mxCell id="fKlVXKqgQDIWuhwJHFet-78" value="" style="shape=partialRectangle;html=1;whiteSpace=wrap;connectable=0;fillColor=none;top=0;left=0;bottom=0;right=0;overflow=hidden;strokeColor=#909090;fontColor=#1A1A1A;" parent="fKlVXKqgQDIWuhwJHFet-77" vertex="1">
                    <mxGeometry width="30" height="23" as="geometry"/>
                </mxCell>
                <mxCell id="fKlVXKqgQDIWuhwJHFet-79" value="username" style="shape=partialRectangle;html=1;whiteSpace=wrap;connectable=0;fillColor=none;top=0;left=0;bottom=0;right=0;overflow=hidden;align=left;strokeColor=#909090;fontColor=#1A1A1A;" parent="fKlVXKqgQDIWuhwJHFet-77" vertex="1">
                    <mxGeometry x="30" width="100" height="23" as="geometry"/>
                </mxCell>
                <mxCell id="fKlVXKqgQDIWuhwJHFet-80" value="" style="shape=partialRectangle;html=1;whiteSpace=wrap;collapsible=0;dropTarget=0;pointerEvents=0;fillColor=none;top=0;left=0;bottom=0;right=0;points=[[0,0.5],[1,0.5]];portConstraint=eastwest;strokeColor=#909090;fontColor=#1A1A1A;" parent="fKlVXKqgQDIWuhwJHFet-73" vertex="1">
                    <mxGeometry y="89" width="130" height="21" as="geometry"/>
                </mxCell>
                <mxCell id="fKlVXKqgQDIWuhwJHFet-81" value="" style="shape=partialRectangle;html=1;whiteSpace=wrap;connectable=0;fillColor=none;top=0;left=0;bottom=0;right=0;overflow=hidden;strokeColor=#909090;fontColor=#1A1A1A;" parent="fKlVXKqgQDIWuhwJHFet-80" vertex="1">
                    <mxGeometry width="30" height="21" as="geometry"/>
                </mxCell>
                <mxCell id="fKlVXKqgQDIWuhwJHFet-82" value="password" style="shape=partialRectangle;html=1;whiteSpace=wrap;connectable=0;fillColor=none;top=0;left=0;bottom=0;right=0;overflow=hidden;align=left;strokeColor=#909090;fontColor=#1A1A1A;" parent="fKlVXKqgQDIWuhwJHFet-80" vertex="1">
                    <mxGeometry x="30" width="100" height="21" as="geometry"/>
                </mxCell>
                <mxCell id="fKlVXKqgQDIWuhwJHFet-83" style="shape=partialRectangle;html=1;whiteSpace=wrap;collapsible=0;dropTarget=0;pointerEvents=0;fillColor=none;top=0;left=0;bottom=0;right=0;points=[[0,0.5],[1,0.5]];portConstraint=eastwest;strokeColor=#909090;fontColor=#1A1A1A;" parent="fKlVXKqgQDIWuhwJHFet-73" vertex="1">
                    <mxGeometry y="110" width="130" height="22" as="geometry"/>
                </mxCell>
                <mxCell id="fKlVXKqgQDIWuhwJHFet-84" style="shape=partialRectangle;html=1;whiteSpace=wrap;connectable=0;fillColor=none;top=0;left=0;bottom=0;right=0;overflow=hidden;strokeColor=#909090;fontColor=#1A1A1A;" parent="fKlVXKqgQDIWuhwJHFet-83" vertex="1">
                    <mxGeometry width="30" height="22" as="geometry"/>
                </mxCell>
                <mxCell id="fKlVXKqgQDIWuhwJHFet-85" value="email" style="shape=partialRectangle;html=1;whiteSpace=wrap;connectable=0;fillColor=none;top=0;left=0;bottom=0;right=0;overflow=hidden;align=left;strokeColor=#909090;fontColor=#1A1A1A;" parent="fKlVXKqgQDIWuhwJHFet-83" vertex="1">
                    <mxGeometry x="30" width="100" height="22" as="geometry"/>
                </mxCell>
                <mxCell id="fKlVXKqgQDIWuhwJHFet-86" style="shape=partialRectangle;html=1;whiteSpace=wrap;collapsible=0;dropTarget=0;pointerEvents=0;fillColor=none;top=0;left=0;bottom=0;right=0;points=[[0,0.5],[1,0.5]];portConstraint=eastwest;strokeColor=#909090;fontColor=#1A1A1A;" parent="fKlVXKqgQDIWuhwJHFet-73" vertex="1">
                    <mxGeometry y="132" width="130" height="22" as="geometry"/>
                </mxCell>
                <mxCell id="fKlVXKqgQDIWuhwJHFet-87" style="shape=partialRectangle;html=1;whiteSpace=wrap;connectable=0;fillColor=none;top=0;left=0;bottom=0;right=0;overflow=hidden;strokeColor=#909090;fontColor=#1A1A1A;" parent="fKlVXKqgQDIWuhwJHFet-86" vertex="1">
                    <mxGeometry width="30" height="22" as="geometry"/>
                </mxCell>
                <mxCell id="fKlVXKqgQDIWuhwJHFet-88" value="fullname" style="shape=partialRectangle;html=1;whiteSpace=wrap;connectable=0;fillColor=none;top=0;left=0;bottom=0;right=0;overflow=hidden;align=left;strokeColor=#909090;fontColor=#1A1A1A;" parent="fKlVXKqgQDIWuhwJHFet-86" vertex="1">
                    <mxGeometry x="30" width="100" height="22" as="geometry"/>
                </mxCell>
                <mxCell id="fKlVXKqgQDIWuhwJHFet-293" style="shape=partialRectangle;html=1;whiteSpace=wrap;collapsible=0;dropTarget=0;pointerEvents=0;fillColor=none;top=0;left=0;bottom=0;right=0;points=[[0,0.5],[1,0.5]];portConstraint=eastwest;strokeColor=#909090;fontColor=#1A1A1A;" parent="fKlVXKqgQDIWuhwJHFet-73" vertex="1">
                    <mxGeometry y="154" width="130" height="20" as="geometry"/>
                </mxCell>
                <mxCell id="fKlVXKqgQDIWuhwJHFet-294" style="shape=partialRectangle;html=1;whiteSpace=wrap;connectable=0;fillColor=none;top=0;left=0;bottom=0;right=0;overflow=hidden;strokeColor=#909090;fontColor=#1A1A1A;" parent="fKlVXKqgQDIWuhwJHFet-293" vertex="1">
                    <mxGeometry width="30" height="20" as="geometry"/>
                </mxCell>
                <mxCell id="fKlVXKqgQDIWuhwJHFet-295" value="phone1" style="shape=partialRectangle;html=1;whiteSpace=wrap;connectable=0;fillColor=none;top=0;left=0;bottom=0;right=0;overflow=hidden;align=left;strokeColor=#909090;fontColor=#1A1A1A;" parent="fKlVXKqgQDIWuhwJHFet-293" vertex="1">
                    <mxGeometry x="30" width="100" height="20" as="geometry"/>
                </mxCell>
                <mxCell id="fKlVXKqgQDIWuhwJHFet-89" style="shape=partialRectangle;html=1;whiteSpace=wrap;collapsible=0;dropTarget=0;pointerEvents=0;fillColor=none;top=0;left=0;bottom=0;right=0;points=[[0,0.5],[1,0.5]];portConstraint=eastwest;strokeColor=#909090;fontColor=#1A1A1A;" parent="fKlVXKqgQDIWuhwJHFet-73" vertex="1">
                    <mxGeometry y="174" width="130" height="20" as="geometry"/>
                </mxCell>
                <mxCell id="fKlVXKqgQDIWuhwJHFet-90" style="shape=partialRectangle;html=1;whiteSpace=wrap;connectable=0;fillColor=none;top=0;left=0;bottom=0;right=0;overflow=hidden;strokeColor=#909090;fontColor=#1A1A1A;" parent="fKlVXKqgQDIWuhwJHFet-89" vertex="1">
                    <mxGeometry width="30" height="20" as="geometry"/>
                </mxCell>
                <mxCell id="fKlVXKqgQDIWuhwJHFet-91" value="dateofbirth" style="shape=partialRectangle;html=1;whiteSpace=wrap;connectable=0;fillColor=none;top=0;left=0;bottom=0;right=0;overflow=hidden;align=left;strokeColor=#909090;fontColor=#1A1A1A;" parent="fKlVXKqgQDIWuhwJHFet-89" vertex="1">
                    <mxGeometry x="30" width="100" height="20" as="geometry"/>
                </mxCell>
                <mxCell id="fKlVXKqgQDIWuhwJHFet-128" style="shape=partialRectangle;html=1;whiteSpace=wrap;collapsible=0;dropTarget=0;pointerEvents=0;fillColor=none;top=0;left=0;bottom=0;right=0;points=[[0,0.5],[1,0.5]];portConstraint=eastwest;strokeColor=#909090;fontColor=#1A1A1A;" parent="fKlVXKqgQDIWuhwJHFet-73" vertex="1">
                    <mxGeometry y="194" width="130" height="20" as="geometry"/>
                </mxCell>
                <mxCell id="fKlVXKqgQDIWuhwJHFet-129" style="shape=partialRectangle;html=1;whiteSpace=wrap;connectable=0;fillColor=none;top=0;left=0;bottom=0;right=0;overflow=hidden;strokeColor=#909090;fontColor=#1A1A1A;" parent="fKlVXKqgQDIWuhwJHFet-128" vertex="1">
                    <mxGeometry width="30" height="20" as="geometry"/>
                </mxCell>
                <mxCell id="fKlVXKqgQDIWuhwJHFet-130" value="aid" style="shape=partialRectangle;html=1;whiteSpace=wrap;connectable=0;fillColor=none;top=0;left=0;bottom=0;right=0;overflow=hidden;align=left;strokeColor=#909090;fontColor=#1A1A1A;" parent="fKlVXKqgQDIWuhwJHFet-128" vertex="1">
                    <mxGeometry x="30" width="100" height="20" as="geometry"/>
                </mxCell>
                <mxCell id="fKlVXKqgQDIWuhwJHFet-134" style="shape=partialRectangle;html=1;whiteSpace=wrap;collapsible=0;dropTarget=0;pointerEvents=0;fillColor=none;top=0;left=0;bottom=0;right=0;points=[[0,0.5],[1,0.5]];portConstraint=eastwest;strokeColor=#909090;fontColor=#1A1A1A;" parent="fKlVXKqgQDIWuhwJHFet-73" vertex="1">
                    <mxGeometry y="214" width="130" height="20" as="geometry"/>
                </mxCell>
                <mxCell id="fKlVXKqgQDIWuhwJHFet-135" style="shape=partialRectangle;html=1;whiteSpace=wrap;connectable=0;fillColor=none;top=0;left=0;bottom=0;right=0;overflow=hidden;strokeColor=#909090;fontColor=#1A1A1A;" parent="fKlVXKqgQDIWuhwJHFet-134" vertex="1">
                    <mxGeometry width="30" height="20" as="geometry"/>
                </mxCell>
                <mxCell id="fKlVXKqgQDIWuhwJHFet-136" value="emailconfirm" style="shape=partialRectangle;html=1;whiteSpace=wrap;connectable=0;fillColor=none;top=0;left=0;bottom=0;right=0;overflow=hidden;align=left;strokeColor=#909090;fontColor=#1A1A1A;" parent="fKlVXKqgQDIWuhwJHFet-134" vertex="1">
                    <mxGeometry x="30" width="100" height="20" as="geometry"/>
                </mxCell>
                <mxCell id="fKlVXKqgQDIWuhwJHFet-137" style="shape=partialRectangle;html=1;whiteSpace=wrap;collapsible=0;dropTarget=0;pointerEvents=0;fillColor=none;top=0;left=0;bottom=0;right=0;points=[[0,0.5],[1,0.5]];portConstraint=eastwest;strokeColor=#909090;fontColor=#1A1A1A;" parent="fKlVXKqgQDIWuhwJHFet-73" vertex="1">
                    <mxGeometry y="234" width="130" height="20" as="geometry"/>
                </mxCell>
                <mxCell id="fKlVXKqgQDIWuhwJHFet-138" style="shape=partialRectangle;html=1;whiteSpace=wrap;connectable=0;fillColor=none;top=0;left=0;bottom=0;right=0;overflow=hidden;strokeColor=#909090;fontColor=#1A1A1A;" parent="fKlVXKqgQDIWuhwJHFet-137" vertex="1">
                    <mxGeometry width="30" height="20" as="geometry"/>
                </mxCell>
                <mxCell id="fKlVXKqgQDIWuhwJHFet-139" value="status" style="shape=partialRectangle;html=1;whiteSpace=wrap;connectable=0;fillColor=none;top=0;left=0;bottom=0;right=0;overflow=hidden;align=left;strokeColor=#909090;fontColor=#1A1A1A;" parent="fKlVXKqgQDIWuhwJHFet-137" vertex="1">
                    <mxGeometry x="30" width="100" height="20" as="geometry"/>
                </mxCell>
                <mxCell id="fKlVXKqgQDIWuhwJHFet-140" value="Provider" style="shape=table;startSize=20;container=1;collapsible=0;childLayout=tableLayout;fontStyle=1;align=center;flipH=1;fillColor=#F5AB50;strokeColor=#909090;fontColor=#1A1A1A;" parent="1" vertex="1">
                    <mxGeometry x="437" y="31" width="130" height="174" as="geometry"/>
                </mxCell>
                <mxCell id="fKlVXKqgQDIWuhwJHFet-141" value="" style="shape=partialRectangle;html=1;whiteSpace=wrap;collapsible=0;dropTarget=0;pointerEvents=0;fillColor=none;top=0;left=0;bottom=0;right=0;points=[[0,0.5],[1,0.5]];portConstraint=eastwest;strokeColor=#909090;fontColor=#1A1A1A;" parent="fKlVXKqgQDIWuhwJHFet-140" vertex="1">
                    <mxGeometry y="20" width="130" height="26" as="geometry"/>
                </mxCell>
                <mxCell id="fKlVXKqgQDIWuhwJHFet-142" value="PK" style="shape=partialRectangle;html=1;whiteSpace=wrap;connectable=0;fillColor=none;top=0;left=0;bottom=0;right=0;overflow=hidden;strokeColor=#909090;fontColor=#1A1A1A;" parent="fKlVXKqgQDIWuhwJHFet-141" vertex="1">
                    <mxGeometry width="30" height="26" as="geometry"/>
                </mxCell>
                <mxCell id="fKlVXKqgQDIWuhwJHFet-143" value="pid" style="shape=partialRectangle;html=1;whiteSpace=wrap;connectable=0;fillColor=none;top=0;left=0;bottom=0;right=0;overflow=hidden;fontStyle=0;align=left;strokeColor=#909090;fontColor=#1A1A1A;" parent="fKlVXKqgQDIWuhwJHFet-141" vertex="1">
                    <mxGeometry x="30" width="100" height="26" as="geometry"/>
                </mxCell>
                <mxCell id="fKlVXKqgQDIWuhwJHFet-144" value="" style="shape=partialRectangle;html=1;whiteSpace=wrap;collapsible=0;dropTarget=0;pointerEvents=0;fillColor=none;top=0;left=0;bottom=0;right=0;points=[[0,0.5],[1,0.5]];portConstraint=eastwest;strokeColor=#909090;fontColor=#1A1A1A;" parent="fKlVXKqgQDIWuhwJHFet-140" vertex="1">
                    <mxGeometry y="46" width="130" height="23" as="geometry"/>
                </mxCell>
                <mxCell id="fKlVXKqgQDIWuhwJHFet-145" value="" style="shape=partialRectangle;html=1;whiteSpace=wrap;connectable=0;fillColor=none;top=0;left=0;bottom=0;right=0;overflow=hidden;strokeColor=#909090;fontColor=#1A1A1A;" parent="fKlVXKqgQDIWuhwJHFet-144" vertex="1">
                    <mxGeometry width="30" height="23" as="geometry"/>
                </mxCell>
                <mxCell id="fKlVXKqgQDIWuhwJHFet-146" value="namecompany" style="shape=partialRectangle;html=1;whiteSpace=wrap;connectable=0;fillColor=none;top=0;left=0;bottom=0;right=0;overflow=hidden;align=left;strokeColor=#909090;fontColor=#1A1A1A;" parent="fKlVXKqgQDIWuhwJHFet-144" vertex="1">
                    <mxGeometry x="30" width="100" height="23" as="geometry"/>
                </mxCell>
                <mxCell id="fKlVXKqgQDIWuhwJHFet-147" value="" style="shape=partialRectangle;html=1;whiteSpace=wrap;collapsible=0;dropTarget=0;pointerEvents=0;fillColor=none;top=0;left=0;bottom=0;right=0;points=[[0,0.5],[1,0.5]];portConstraint=eastwest;strokeColor=#909090;fontColor=#1A1A1A;" parent="fKlVXKqgQDIWuhwJHFet-140" vertex="1">
                    <mxGeometry y="69" width="130" height="21" as="geometry"/>
                </mxCell>
                <mxCell id="fKlVXKqgQDIWuhwJHFet-148" value="" style="shape=partialRectangle;html=1;whiteSpace=wrap;connectable=0;fillColor=none;top=0;left=0;bottom=0;right=0;overflow=hidden;strokeColor=#909090;fontColor=#1A1A1A;" parent="fKlVXKqgQDIWuhwJHFet-147" vertex="1">
                    <mxGeometry width="30" height="21" as="geometry"/>
                </mxCell>
                <mxCell id="fKlVXKqgQDIWuhwJHFet-149" value="rnc" style="shape=partialRectangle;html=1;whiteSpace=wrap;connectable=0;fillColor=none;top=0;left=0;bottom=0;right=0;overflow=hidden;align=left;strokeColor=#909090;fontColor=#1A1A1A;" parent="fKlVXKqgQDIWuhwJHFet-147" vertex="1">
                    <mxGeometry x="30" width="100" height="21" as="geometry"/>
                </mxCell>
                <mxCell id="fKlVXKqgQDIWuhwJHFet-150" style="shape=partialRectangle;html=1;whiteSpace=wrap;collapsible=0;dropTarget=0;pointerEvents=0;fillColor=none;top=0;left=0;bottom=0;right=0;points=[[0,0.5],[1,0.5]];portConstraint=eastwest;strokeColor=#909090;fontColor=#1A1A1A;" parent="fKlVXKqgQDIWuhwJHFet-140" vertex="1">
                    <mxGeometry y="90" width="130" height="22" as="geometry"/>
                </mxCell>
                <mxCell id="fKlVXKqgQDIWuhwJHFet-151" style="shape=partialRectangle;html=1;whiteSpace=wrap;connectable=0;fillColor=none;top=0;left=0;bottom=0;right=0;overflow=hidden;strokeColor=#909090;fontColor=#1A1A1A;" parent="fKlVXKqgQDIWuhwJHFet-150" vertex="1">
                    <mxGeometry width="30" height="22" as="geometry"/>
                </mxCell>
                <mxCell id="fKlVXKqgQDIWuhwJHFet-152" value="email" style="shape=partialRectangle;html=1;whiteSpace=wrap;connectable=0;fillColor=none;top=0;left=0;bottom=0;right=0;overflow=hidden;align=left;strokeColor=#909090;fontColor=#1A1A1A;" parent="fKlVXKqgQDIWuhwJHFet-150" vertex="1">
                    <mxGeometry x="30" width="100" height="22" as="geometry"/>
                </mxCell>
                <mxCell id="fKlVXKqgQDIWuhwJHFet-153" style="shape=partialRectangle;html=1;whiteSpace=wrap;collapsible=0;dropTarget=0;pointerEvents=0;fillColor=none;top=0;left=0;bottom=0;right=0;points=[[0,0.5],[1,0.5]];portConstraint=eastwest;strokeColor=#909090;fontColor=#1A1A1A;" parent="fKlVXKqgQDIWuhwJHFet-140" vertex="1">
                    <mxGeometry y="112" width="130" height="22" as="geometry"/>
                </mxCell>
                <mxCell id="fKlVXKqgQDIWuhwJHFet-154" style="shape=partialRectangle;html=1;whiteSpace=wrap;connectable=0;fillColor=none;top=0;left=0;bottom=0;right=0;overflow=hidden;strokeColor=#909090;fontColor=#1A1A1A;" parent="fKlVXKqgQDIWuhwJHFet-153" vertex="1">
                    <mxGeometry width="30" height="22" as="geometry"/>
                </mxCell>
                <mxCell id="fKlVXKqgQDIWuhwJHFet-155" value="phone1" style="shape=partialRectangle;html=1;whiteSpace=wrap;connectable=0;fillColor=none;top=0;left=0;bottom=0;right=0;overflow=hidden;align=left;strokeColor=#909090;fontColor=#1A1A1A;" parent="fKlVXKqgQDIWuhwJHFet-153" vertex="1">
                    <mxGeometry x="30" width="100" height="22" as="geometry"/>
                </mxCell>
                <mxCell id="fKlVXKqgQDIWuhwJHFet-156" style="shape=partialRectangle;html=1;whiteSpace=wrap;collapsible=0;dropTarget=0;pointerEvents=0;fillColor=none;top=0;left=0;bottom=0;right=0;points=[[0,0.5],[1,0.5]];portConstraint=eastwest;strokeColor=#909090;fontColor=#1A1A1A;" parent="fKlVXKqgQDIWuhwJHFet-140" vertex="1">
                    <mxGeometry y="134" width="130" height="20" as="geometry"/>
                </mxCell>
                <mxCell id="fKlVXKqgQDIWuhwJHFet-157" style="shape=partialRectangle;html=1;whiteSpace=wrap;connectable=0;fillColor=none;top=0;left=0;bottom=0;right=0;overflow=hidden;strokeColor=#909090;fontColor=#1A1A1A;" parent="fKlVXKqgQDIWuhwJHFet-156" vertex="1">
                    <mxGeometry width="30" height="20" as="geometry"/>
                </mxCell>
                <mxCell id="fKlVXKqgQDIWuhwJHFet-158" value="phone2" style="shape=partialRectangle;html=1;whiteSpace=wrap;connectable=0;fillColor=none;top=0;left=0;bottom=0;right=0;overflow=hidden;align=left;strokeColor=#909090;fontColor=#1A1A1A;" parent="fKlVXKqgQDIWuhwJHFet-156" vertex="1">
                    <mxGeometry x="30" width="100" height="20" as="geometry"/>
                </mxCell>
                <mxCell id="fKlVXKqgQDIWuhwJHFet-159" style="shape=partialRectangle;html=1;whiteSpace=wrap;collapsible=0;dropTarget=0;pointerEvents=0;fillColor=none;top=0;left=0;bottom=0;right=0;points=[[0,0.5],[1,0.5]];portConstraint=eastwest;strokeColor=#909090;fontColor=#1A1A1A;" parent="fKlVXKqgQDIWuhwJHFet-140" vertex="1">
                    <mxGeometry y="154" width="130" height="20" as="geometry"/>
                </mxCell>
                <mxCell id="fKlVXKqgQDIWuhwJHFet-160" style="shape=partialRectangle;html=1;whiteSpace=wrap;connectable=0;fillColor=none;top=0;left=0;bottom=0;right=0;overflow=hidden;strokeColor=#909090;fontColor=#1A1A1A;" parent="fKlVXKqgQDIWuhwJHFet-159" vertex="1">
                    <mxGeometry width="30" height="20" as="geometry"/>
                </mxCell>
                <mxCell id="fKlVXKqgQDIWuhwJHFet-161" value="address" style="shape=partialRectangle;html=1;whiteSpace=wrap;connectable=0;fillColor=none;top=0;left=0;bottom=0;right=0;overflow=hidden;align=left;strokeColor=#909090;fontColor=#1A1A1A;" parent="fKlVXKqgQDIWuhwJHFet-159" vertex="1">
                    <mxGeometry x="30" width="100" height="20" as="geometry"/>
                </mxCell>
                <mxCell id="fKlVXKqgQDIWuhwJHFet-199" value="Claims" style="shape=table;startSize=20;container=1;collapsible=0;childLayout=tableLayout;fontStyle=1;align=center;flipH=1;fillColor=#F5AB50;strokeColor=#909090;fontColor=#1A1A1A;" parent="1" vertex="1">
                    <mxGeometry x="585" y="392" width="60" height="194" as="geometry"/>
                </mxCell>
                <mxCell id="fKlVXKqgQDIWuhwJHFet-200" value="" style="shape=partialRectangle;html=1;whiteSpace=wrap;collapsible=0;dropTarget=0;pointerEvents=0;fillColor=none;top=0;left=0;bottom=0;right=0;points=[[0,0.5],[1,0.5]];portConstraint=eastwest;strokeColor=#909090;fontColor=#1A1A1A;" parent="fKlVXKqgQDIWuhwJHFet-199" vertex="1">
                    <mxGeometry y="20" width="60" height="26" as="geometry"/>
                </mxCell>
                <mxCell id="fKlVXKqgQDIWuhwJHFet-201" value="PK" style="shape=partialRectangle;html=1;whiteSpace=wrap;connectable=0;fillColor=none;top=0;left=0;bottom=0;right=0;overflow=hidden;strokeColor=#909090;fontColor=#1A1A1A;" parent="fKlVXKqgQDIWuhwJHFet-200" vertex="1">
                    <mxGeometry width="30" height="26" as="geometry"/>
                </mxCell>
                <mxCell id="fKlVXKqgQDIWuhwJHFet-236" value="cid" style="shape=partialRectangle;html=1;whiteSpace=wrap;connectable=0;fillColor=none;top=0;left=0;bottom=0;right=0;overflow=hidden;fontStyle=0;align=left;strokeColor=#909090;fontColor=#1A1A1A;" parent="fKlVXKqgQDIWuhwJHFet-200" vertex="1">
                    <mxGeometry x="30" width="30" height="26" as="geometry"/>
                </mxCell>
                <mxCell id="fKlVXKqgQDIWuhwJHFet-203" value="" style="shape=partialRectangle;html=1;whiteSpace=wrap;collapsible=0;dropTarget=0;pointerEvents=0;fillColor=none;top=0;left=0;bottom=0;right=0;points=[[0,0.5],[1,0.5]];portConstraint=eastwest;strokeColor=#909090;fontColor=#1A1A1A;" parent="fKlVXKqgQDIWuhwJHFet-199" vertex="1">
                    <mxGeometry y="46" width="60" height="23" as="geometry"/>
                </mxCell>
                <mxCell id="fKlVXKqgQDIWuhwJHFet-204" value="" style="shape=partialRectangle;html=1;whiteSpace=wrap;connectable=0;fillColor=none;top=0;left=0;bottom=0;right=0;overflow=hidden;strokeColor=#909090;fontColor=#1A1A1A;" parent="fKlVXKqgQDIWuhwJHFet-203" vertex="1">
                    <mxGeometry width="30" height="23" as="geometry"/>
                </mxCell>
                <mxCell id="fKlVXKqgQDIWuhwJHFet-237" value="255" style="shape=partialRectangle;html=1;whiteSpace=wrap;connectable=0;fillColor=none;top=0;left=0;bottom=0;right=0;overflow=hidden;align=left;strokeColor=#909090;fontColor=#1A1A1A;" parent="fKlVXKqgQDIWuhwJHFet-203" vertex="1">
                    <mxGeometry x="30" width="30" height="23" as="geometry"/>
                </mxCell>
                <mxCell id="fKlVXKqgQDIWuhwJHFet-206" value="" style="shape=partialRectangle;html=1;whiteSpace=wrap;collapsible=0;dropTarget=0;pointerEvents=0;fillColor=none;top=0;left=0;bottom=0;right=0;points=[[0,0.5],[1,0.5]];portConstraint=eastwest;strokeColor=#909090;fontColor=#1A1A1A;" parent="fKlVXKqgQDIWuhwJHFet-199" vertex="1">
                    <mxGeometry y="69" width="60" height="21" as="geometry"/>
                </mxCell>
                <mxCell id="fKlVXKqgQDIWuhwJHFet-207" value="" style="shape=partialRectangle;html=1;whiteSpace=wrap;connectable=0;fillColor=none;top=0;left=0;bottom=0;right=0;overflow=hidden;strokeColor=#909090;fontColor=#1A1A1A;" parent="fKlVXKqgQDIWuhwJHFet-206" vertex="1">
                    <mxGeometry width="30" height="21" as="geometry"/>
                </mxCell>
                <mxCell id="fKlVXKqgQDIWuhwJHFet-238" value="254" style="shape=partialRectangle;html=1;whiteSpace=wrap;connectable=0;fillColor=none;top=0;left=0;bottom=0;right=0;overflow=hidden;align=left;strokeColor=#909090;fontColor=#1A1A1A;" parent="fKlVXKqgQDIWuhwJHFet-206" vertex="1">
                    <mxGeometry x="30" width="30" height="21" as="geometry"/>
                </mxCell>
                <mxCell id="fKlVXKqgQDIWuhwJHFet-209" style="shape=partialRectangle;html=1;whiteSpace=wrap;collapsible=0;dropTarget=0;pointerEvents=0;fillColor=none;top=0;left=0;bottom=0;right=0;points=[[0,0.5],[1,0.5]];portConstraint=eastwest;strokeColor=#909090;fontColor=#1A1A1A;" parent="fKlVXKqgQDIWuhwJHFet-199" vertex="1">
                    <mxGeometry y="90" width="60" height="22" as="geometry"/>
                </mxCell>
                <mxCell id="fKlVXKqgQDIWuhwJHFet-210" style="shape=partialRectangle;html=1;whiteSpace=wrap;connectable=0;fillColor=none;top=0;left=0;bottom=0;right=0;overflow=hidden;strokeColor=#909090;fontColor=#1A1A1A;" parent="fKlVXKqgQDIWuhwJHFet-209" vertex="1">
                    <mxGeometry width="30" height="22" as="geometry"/>
                </mxCell>
                <mxCell id="fKlVXKqgQDIWuhwJHFet-239" value="253" style="shape=partialRectangle;html=1;whiteSpace=wrap;connectable=0;fillColor=none;top=0;left=0;bottom=0;right=0;overflow=hidden;align=left;strokeColor=#909090;fontColor=#1A1A1A;" parent="fKlVXKqgQDIWuhwJHFet-209" vertex="1">
                    <mxGeometry x="30" width="30" height="22" as="geometry"/>
                </mxCell>
                <mxCell id="fKlVXKqgQDIWuhwJHFet-212" style="shape=partialRectangle;html=1;whiteSpace=wrap;collapsible=0;dropTarget=0;pointerEvents=0;fillColor=none;top=0;left=0;bottom=0;right=0;points=[[0,0.5],[1,0.5]];portConstraint=eastwest;strokeColor=#909090;fontColor=#1A1A1A;" parent="fKlVXKqgQDIWuhwJHFet-199" vertex="1">
                    <mxGeometry y="112" width="60" height="22" as="geometry"/>
                </mxCell>
                <mxCell id="fKlVXKqgQDIWuhwJHFet-213" style="shape=partialRectangle;html=1;whiteSpace=wrap;connectable=0;fillColor=none;top=0;left=0;bottom=0;right=0;overflow=hidden;strokeColor=#909090;fontColor=#1A1A1A;" parent="fKlVXKqgQDIWuhwJHFet-212" vertex="1">
                    <mxGeometry width="30" height="22" as="geometry"/>
                </mxCell>
                <mxCell id="fKlVXKqgQDIWuhwJHFet-240" value="252" style="shape=partialRectangle;html=1;whiteSpace=wrap;connectable=0;fillColor=none;top=0;left=0;bottom=0;right=0;overflow=hidden;align=left;strokeColor=#909090;fontColor=#1A1A1A;" parent="fKlVXKqgQDIWuhwJHFet-212" vertex="1">
                    <mxGeometry x="30" width="30" height="22" as="geometry"/>
                </mxCell>
                <mxCell id="fKlVXKqgQDIWuhwJHFet-215" style="shape=partialRectangle;html=1;whiteSpace=wrap;collapsible=0;dropTarget=0;pointerEvents=0;fillColor=none;top=0;left=0;bottom=0;right=0;points=[[0,0.5],[1,0.5]];portConstraint=eastwest;strokeColor=#909090;fontColor=#1A1A1A;" parent="fKlVXKqgQDIWuhwJHFet-199" vertex="1">
                    <mxGeometry y="134" width="60" height="20" as="geometry"/>
                </mxCell>
                <mxCell id="fKlVXKqgQDIWuhwJHFet-216" style="shape=partialRectangle;html=1;whiteSpace=wrap;connectable=0;fillColor=none;top=0;left=0;bottom=0;right=0;overflow=hidden;strokeColor=#909090;fontColor=#1A1A1A;" parent="fKlVXKqgQDIWuhwJHFet-215" vertex="1">
                    <mxGeometry width="30" height="20" as="geometry"/>
                </mxCell>
                <mxCell id="fKlVXKqgQDIWuhwJHFet-241" value="251" style="shape=partialRectangle;html=1;whiteSpace=wrap;connectable=0;fillColor=none;top=0;left=0;bottom=0;right=0;overflow=hidden;align=left;strokeColor=#909090;fontColor=#1A1A1A;" parent="fKlVXKqgQDIWuhwJHFet-215" vertex="1">
                    <mxGeometry x="30" width="30" height="20" as="geometry"/>
                </mxCell>
                <mxCell id="fKlVXKqgQDIWuhwJHFet-218" style="shape=partialRectangle;html=1;whiteSpace=wrap;collapsible=0;dropTarget=0;pointerEvents=0;fillColor=none;top=0;left=0;bottom=0;right=0;points=[[0,0.5],[1,0.5]];portConstraint=eastwest;strokeColor=#909090;fontColor=#1A1A1A;" parent="fKlVXKqgQDIWuhwJHFet-199" vertex="1">
                    <mxGeometry y="154" width="60" height="20" as="geometry"/>
                </mxCell>
                <mxCell id="fKlVXKqgQDIWuhwJHFet-219" style="shape=partialRectangle;html=1;whiteSpace=wrap;connectable=0;fillColor=none;top=0;left=0;bottom=0;right=0;overflow=hidden;strokeColor=#909090;fontColor=#1A1A1A;" parent="fKlVXKqgQDIWuhwJHFet-218" vertex="1">
                    <mxGeometry width="30" height="20" as="geometry"/>
                </mxCell>
                <mxCell id="fKlVXKqgQDIWuhwJHFet-242" value="250" style="shape=partialRectangle;html=1;whiteSpace=wrap;connectable=0;fillColor=none;top=0;left=0;bottom=0;right=0;overflow=hidden;align=left;strokeColor=#909090;fontColor=#1A1A1A;" parent="fKlVXKqgQDIWuhwJHFet-218" vertex="1">
                    <mxGeometry x="30" width="30" height="20" as="geometry"/>
                </mxCell>
                <mxCell id="fKlVXKqgQDIWuhwJHFet-249" style="shape=partialRectangle;html=1;whiteSpace=wrap;collapsible=0;dropTarget=0;pointerEvents=0;fillColor=none;top=0;left=0;bottom=0;right=0;points=[[0,0.5],[1,0.5]];portConstraint=eastwest;strokeColor=#909090;fontColor=#1A1A1A;" parent="fKlVXKqgQDIWuhwJHFet-199" vertex="1">
                    <mxGeometry y="174" width="60" height="20" as="geometry"/>
                </mxCell>
                <mxCell id="fKlVXKqgQDIWuhwJHFet-250" style="shape=partialRectangle;html=1;whiteSpace=wrap;connectable=0;fillColor=none;top=0;left=0;bottom=0;right=0;overflow=hidden;strokeColor=#909090;fontColor=#1A1A1A;" parent="fKlVXKqgQDIWuhwJHFet-249" vertex="1">
                    <mxGeometry width="30" height="20" as="geometry"/>
                </mxCell>
                <mxCell id="fKlVXKqgQDIWuhwJHFet-251" value="....." style="shape=partialRectangle;html=1;whiteSpace=wrap;connectable=0;fillColor=none;top=0;left=0;bottom=0;right=0;overflow=hidden;align=left;strokeColor=#909090;fontColor=#1A1A1A;" parent="fKlVXKqgQDIWuhwJHFet-249" vertex="1">
                    <mxGeometry x="30" width="30" height="20" as="geometry"/>
                </mxCell>
                <mxCell id="fKlVXKqgQDIWuhwJHFet-252" value="Client" style="shape=table;startSize=20;container=1;collapsible=0;childLayout=tableLayout;fontStyle=1;align=center;flipH=1;fillColor=#F5AB50;strokeColor=#909090;fontColor=#1A1A1A;" parent="1" vertex="1">
                    <mxGeometry x="278" y="62" width="130" height="238" as="geometry"/>
                </mxCell>
                <mxCell id="fKlVXKqgQDIWuhwJHFet-253" value="" style="shape=partialRectangle;html=1;whiteSpace=wrap;collapsible=0;dropTarget=0;pointerEvents=0;fillColor=none;top=0;left=0;bottom=0;right=0;points=[[0,0.5],[1,0.5]];portConstraint=eastwest;strokeColor=#909090;fontColor=#1A1A1A;" parent="fKlVXKqgQDIWuhwJHFet-252" vertex="1">
                    <mxGeometry y="20" width="130" height="26" as="geometry"/>
                </mxCell>
                <mxCell id="fKlVXKqgQDIWuhwJHFet-254" value="PK" style="shape=partialRectangle;html=1;whiteSpace=wrap;connectable=0;fillColor=none;top=0;left=0;bottom=0;right=0;overflow=hidden;strokeColor=#909090;fontColor=#1A1A1A;" parent="fKlVXKqgQDIWuhwJHFet-253" vertex="1">
                    <mxGeometry width="30" height="26" as="geometry"/>
                </mxCell>
                <mxCell id="fKlVXKqgQDIWuhwJHFet-255" value="cid" style="shape=partialRectangle;html=1;whiteSpace=wrap;connectable=0;fillColor=none;top=0;left=0;bottom=0;right=0;overflow=hidden;fontStyle=0;align=left;strokeColor=#909090;fontColor=#1A1A1A;" parent="fKlVXKqgQDIWuhwJHFet-253" vertex="1">
                    <mxGeometry x="30" width="100" height="26" as="geometry"/>
                </mxCell>
                <mxCell id="fKlVXKqgQDIWuhwJHFet-256" value="" style="shape=partialRectangle;html=1;whiteSpace=wrap;collapsible=0;dropTarget=0;pointerEvents=0;fillColor=none;top=0;left=0;bottom=0;right=0;points=[[0,0.5],[1,0.5]];portConstraint=eastwest;strokeColor=#909090;fontColor=#1A1A1A;" parent="fKlVXKqgQDIWuhwJHFet-252" vertex="1">
                    <mxGeometry y="46" width="130" height="23" as="geometry"/>
                </mxCell>
                <mxCell id="fKlVXKqgQDIWuhwJHFet-257" value="" style="shape=partialRectangle;html=1;whiteSpace=wrap;connectable=0;fillColor=none;top=0;left=0;bottom=0;right=0;overflow=hidden;strokeColor=#909090;fontColor=#1A1A1A;" parent="fKlVXKqgQDIWuhwJHFet-256" vertex="1">
                    <mxGeometry width="30" height="23" as="geometry"/>
                </mxCell>
                <mxCell id="fKlVXKqgQDIWuhwJHFet-258" value="fullname" style="shape=partialRectangle;html=1;whiteSpace=wrap;connectable=0;fillColor=none;top=0;left=0;bottom=0;right=0;overflow=hidden;align=left;strokeColor=#909090;fontColor=#1A1A1A;" parent="fKlVXKqgQDIWuhwJHFet-256" vertex="1">
                    <mxGeometry x="30" width="100" height="23" as="geometry"/>
                </mxCell>
                <mxCell id="fKlVXKqgQDIWuhwJHFet-259" value="" style="shape=partialRectangle;html=1;whiteSpace=wrap;collapsible=0;dropTarget=0;pointerEvents=0;fillColor=none;top=0;left=0;bottom=0;right=0;points=[[0,0.5],[1,0.5]];portConstraint=eastwest;strokeColor=#909090;fontColor=#1A1A1A;" parent="fKlVXKqgQDIWuhwJHFet-252" vertex="1">
                    <mxGeometry y="69" width="130" height="21" as="geometry"/>
                </mxCell>
                <mxCell id="fKlVXKqgQDIWuhwJHFet-260" value="" style="shape=partialRectangle;html=1;whiteSpace=wrap;connectable=0;fillColor=none;top=0;left=0;bottom=0;right=0;overflow=hidden;strokeColor=#909090;fontColor=#1A1A1A;" parent="fKlVXKqgQDIWuhwJHFet-259" vertex="1">
                    <mxGeometry width="30" height="21" as="geometry"/>
                </mxCell>
                <mxCell id="fKlVXKqgQDIWuhwJHFet-261" value="rnc" style="shape=partialRectangle;html=1;whiteSpace=wrap;connectable=0;fillColor=none;top=0;left=0;bottom=0;right=0;overflow=hidden;align=left;strokeColor=#909090;fontColor=#1A1A1A;" parent="fKlVXKqgQDIWuhwJHFet-259" vertex="1">
                    <mxGeometry x="30" width="100" height="21" as="geometry"/>
                </mxCell>
                <mxCell id="fKlVXKqgQDIWuhwJHFet-262" style="shape=partialRectangle;html=1;whiteSpace=wrap;collapsible=0;dropTarget=0;pointerEvents=0;fillColor=none;top=0;left=0;bottom=0;right=0;points=[[0,0.5],[1,0.5]];portConstraint=eastwest;strokeColor=#909090;fontColor=#1A1A1A;" parent="fKlVXKqgQDIWuhwJHFet-252" vertex="1">
                    <mxGeometry y="90" width="130" height="22" as="geometry"/>
                </mxCell>
                <mxCell id="fKlVXKqgQDIWuhwJHFet-263" style="shape=partialRectangle;html=1;whiteSpace=wrap;connectable=0;fillColor=none;top=0;left=0;bottom=0;right=0;overflow=hidden;strokeColor=#909090;fontColor=#1A1A1A;" parent="fKlVXKqgQDIWuhwJHFet-262" vertex="1">
                    <mxGeometry width="30" height="22" as="geometry"/>
                </mxCell>
                <mxCell id="fKlVXKqgQDIWuhwJHFet-264" value="aid" style="shape=partialRectangle;html=1;whiteSpace=wrap;connectable=0;fillColor=none;top=0;left=0;bottom=0;right=0;overflow=hidden;align=left;strokeColor=#909090;fontColor=#1A1A1A;" parent="fKlVXKqgQDIWuhwJHFet-262" vertex="1">
                    <mxGeometry x="30" width="100" height="22" as="geometry"/>
                </mxCell>
                <mxCell id="fKlVXKqgQDIWuhwJHFet-265" style="shape=partialRectangle;html=1;whiteSpace=wrap;collapsible=0;dropTarget=0;pointerEvents=0;fillColor=none;top=0;left=0;bottom=0;right=0;points=[[0,0.5],[1,0.5]];portConstraint=eastwest;strokeColor=#909090;fontColor=#1A1A1A;" parent="fKlVXKqgQDIWuhwJHFet-252" vertex="1">
                    <mxGeometry y="112" width="130" height="22" as="geometry"/>
                </mxCell>
                <mxCell id="fKlVXKqgQDIWuhwJHFet-266" style="shape=partialRectangle;html=1;whiteSpace=wrap;connectable=0;fillColor=none;top=0;left=0;bottom=0;right=0;overflow=hidden;strokeColor=#909090;fontColor=#1A1A1A;" parent="fKlVXKqgQDIWuhwJHFet-265" vertex="1">
                    <mxGeometry width="30" height="22" as="geometry"/>
                </mxCell>
                <mxCell id="fKlVXKqgQDIWuhwJHFet-267" value="email" style="shape=partialRectangle;html=1;whiteSpace=wrap;connectable=0;fillColor=none;top=0;left=0;bottom=0;right=0;overflow=hidden;align=left;strokeColor=#909090;fontColor=#1A1A1A;" parent="fKlVXKqgQDIWuhwJHFet-265" vertex="1">
                    <mxGeometry x="30" width="100" height="22" as="geometry"/>
                </mxCell>
                <mxCell id="fKlVXKqgQDIWuhwJHFet-305" style="shape=partialRectangle;html=1;whiteSpace=wrap;collapsible=0;dropTarget=0;pointerEvents=0;fillColor=none;top=0;left=0;bottom=0;right=0;points=[[0,0.5],[1,0.5]];portConstraint=eastwest;strokeColor=#909090;fontColor=#1A1A1A;" parent="fKlVXKqgQDIWuhwJHFet-252" vertex="1">
                    <mxGeometry y="134" width="130" height="22" as="geometry"/>
                </mxCell>
                <mxCell id="fKlVXKqgQDIWuhwJHFet-306" style="shape=partialRectangle;html=1;whiteSpace=wrap;connectable=0;fillColor=none;top=0;left=0;bottom=0;right=0;overflow=hidden;strokeColor=#909090;fontColor=#1A1A1A;" parent="fKlVXKqgQDIWuhwJHFet-305" vertex="1">
                    <mxGeometry width="30" height="22" as="geometry"/>
                </mxCell>
                <mxCell id="fKlVXKqgQDIWuhwJHFet-307" value="phone1" style="shape=partialRectangle;html=1;whiteSpace=wrap;connectable=0;fillColor=none;top=0;left=0;bottom=0;right=0;overflow=hidden;align=left;strokeColor=#909090;fontColor=#1A1A1A;" parent="fKlVXKqgQDIWuhwJHFet-305" vertex="1">
                    <mxGeometry x="30" width="100" height="22" as="geometry"/>
                </mxCell>
                <mxCell id="fKlVXKqgQDIWuhwJHFet-308" style="shape=partialRectangle;html=1;whiteSpace=wrap;collapsible=0;dropTarget=0;pointerEvents=0;fillColor=none;top=0;left=0;bottom=0;right=0;points=[[0,0.5],[1,0.5]];portConstraint=eastwest;strokeColor=#909090;fontColor=#1A1A1A;" parent="fKlVXKqgQDIWuhwJHFet-252" vertex="1">
                    <mxGeometry y="156" width="130" height="22" as="geometry"/>
                </mxCell>
                <mxCell id="fKlVXKqgQDIWuhwJHFet-309" style="shape=partialRectangle;html=1;whiteSpace=wrap;connectable=0;fillColor=none;top=0;left=0;bottom=0;right=0;overflow=hidden;strokeColor=#909090;fontColor=#1A1A1A;" parent="fKlVXKqgQDIWuhwJHFet-308" vertex="1">
                    <mxGeometry width="30" height="22" as="geometry"/>
                </mxCell>
                <mxCell id="fKlVXKqgQDIWuhwJHFet-310" value="phone2" style="shape=partialRectangle;html=1;whiteSpace=wrap;connectable=0;fillColor=none;top=0;left=0;bottom=0;right=0;overflow=hidden;align=left;strokeColor=#909090;fontColor=#1A1A1A;" parent="fKlVXKqgQDIWuhwJHFet-308" vertex="1">
                    <mxGeometry x="30" width="100" height="22" as="geometry"/>
                </mxCell>
                <mxCell id="fKlVXKqgQDIWuhwJHFet-268" style="shape=partialRectangle;html=1;whiteSpace=wrap;collapsible=0;dropTarget=0;pointerEvents=0;fillColor=none;top=0;left=0;bottom=0;right=0;points=[[0,0.5],[1,0.5]];portConstraint=eastwest;strokeColor=#909090;fontColor=#1A1A1A;" parent="fKlVXKqgQDIWuhwJHFet-252" vertex="1">
                    <mxGeometry y="178" width="130" height="20" as="geometry"/>
                </mxCell>
                <mxCell id="fKlVXKqgQDIWuhwJHFet-269" style="shape=partialRectangle;html=1;whiteSpace=wrap;connectable=0;fillColor=none;top=0;left=0;bottom=0;right=0;overflow=hidden;strokeColor=#909090;fontColor=#1A1A1A;" parent="fKlVXKqgQDIWuhwJHFet-268" vertex="1">
                    <mxGeometry width="30" height="20" as="geometry"/>
                </mxCell>
                <mxCell id="fKlVXKqgQDIWuhwJHFet-270" value="dateofbirth" style="shape=partialRectangle;html=1;whiteSpace=wrap;connectable=0;fillColor=none;top=0;left=0;bottom=0;right=0;overflow=hidden;align=left;strokeColor=#909090;fontColor=#1A1A1A;" parent="fKlVXKqgQDIWuhwJHFet-268" vertex="1">
                    <mxGeometry x="30" width="100" height="20" as="geometry"/>
                </mxCell>
                <mxCell id="fKlVXKqgQDIWuhwJHFet-271" style="shape=partialRectangle;html=1;whiteSpace=wrap;collapsible=0;dropTarget=0;pointerEvents=0;fillColor=none;top=0;left=0;bottom=0;right=0;points=[[0,0.5],[1,0.5]];portConstraint=eastwest;strokeColor=#909090;fontColor=#1A1A1A;" parent="fKlVXKqgQDIWuhwJHFet-252" vertex="1">
                    <mxGeometry y="198" width="130" height="20" as="geometry"/>
                </mxCell>
                <mxCell id="fKlVXKqgQDIWuhwJHFet-272" style="shape=partialRectangle;html=1;whiteSpace=wrap;connectable=0;fillColor=none;top=0;left=0;bottom=0;right=0;overflow=hidden;strokeColor=#909090;fontColor=#1A1A1A;" parent="fKlVXKqgQDIWuhwJHFet-271" vertex="1">
                    <mxGeometry width="30" height="20" as="geometry"/>
                </mxCell>
                <mxCell id="fKlVXKqgQDIWuhwJHFet-273" value="address" style="shape=partialRectangle;html=1;whiteSpace=wrap;connectable=0;fillColor=none;top=0;left=0;bottom=0;right=0;overflow=hidden;align=left;strokeColor=#909090;fontColor=#1A1A1A;" parent="fKlVXKqgQDIWuhwJHFet-271" vertex="1">
                    <mxGeometry x="30" width="100" height="20" as="geometry"/>
                </mxCell>
                <mxCell id="fKlVXKqgQDIWuhwJHFet-280" style="shape=partialRectangle;html=1;whiteSpace=wrap;collapsible=0;dropTarget=0;pointerEvents=0;fillColor=none;top=0;left=0;bottom=0;right=0;points=[[0,0.5],[1,0.5]];portConstraint=eastwest;strokeColor=#909090;fontColor=#1A1A1A;" parent="fKlVXKqgQDIWuhwJHFet-252" vertex="1">
                    <mxGeometry y="218" width="130" height="20" as="geometry"/>
                </mxCell>
                <mxCell id="fKlVXKqgQDIWuhwJHFet-281" style="shape=partialRectangle;html=1;whiteSpace=wrap;connectable=0;fillColor=none;top=0;left=0;bottom=0;right=0;overflow=hidden;strokeColor=#909090;fontColor=#1A1A1A;" parent="fKlVXKqgQDIWuhwJHFet-280" vertex="1">
                    <mxGeometry width="30" height="20" as="geometry"/>
                </mxCell>
                <mxCell id="fKlVXKqgQDIWuhwJHFet-282" value="status" style="shape=partialRectangle;html=1;whiteSpace=wrap;connectable=0;fillColor=none;top=0;left=0;bottom=0;right=0;overflow=hidden;align=left;strokeColor=#909090;fontColor=#1A1A1A;" parent="fKlVXKqgQDIWuhwJHFet-280" vertex="1">
                    <mxGeometry x="30" width="100" height="20" as="geometry"/>
                </mxCell>
                <mxCell id="15" value="Sales" style="shape=table;startSize=20;container=1;collapsible=0;childLayout=tableLayout;fontStyle=1;align=center;flipH=1;fillColor=#F5AB50;strokeColor=#909090;fontColor=#1A1A1A;" parent="1" vertex="1">
                    <mxGeometry x="98" y="365" width="91.73709211678357" height="112" as="geometry"/>
                </mxCell>
                <mxCell id="16" value="" style="shape=partialRectangle;html=1;whiteSpace=wrap;collapsible=0;dropTarget=0;pointerEvents=0;fillColor=none;top=0;left=0;bottom=0;right=0;points=[[0,0.5],[1,0.5]];portConstraint=eastwest;strokeColor=#909090;fontColor=#1A1A1A;" parent="15" vertex="1">
                    <mxGeometry y="20" width="91.73709211678357" height="26" as="geometry"/>
                </mxCell>
                <mxCell id="17" value="PK" style="shape=partialRectangle;html=1;whiteSpace=wrap;connectable=0;fillColor=none;top=0;left=0;bottom=0;right=0;overflow=hidden;strokeColor=#909090;fontColor=#1A1A1A;" parent="16" vertex="1">
                    <mxGeometry width="30" height="26" as="geometry"/>
                </mxCell>
                <mxCell id="18" value="sid" style="shape=partialRectangle;html=1;whiteSpace=wrap;connectable=0;fillColor=none;top=0;left=0;bottom=0;right=0;overflow=hidden;fontStyle=0;align=left;strokeColor=#909090;fontColor=#1A1A1A;" parent="16" vertex="1">
                    <mxGeometry x="30" width="62" height="26" as="geometry"/>
                </mxCell>
                <mxCell id="19" value="" style="shape=partialRectangle;html=1;whiteSpace=wrap;collapsible=0;dropTarget=0;pointerEvents=0;fillColor=none;top=0;left=0;bottom=0;right=0;points=[[0,0.5],[1,0.5]];portConstraint=eastwest;strokeColor=#909090;fontColor=#1A1A1A;" parent="15" vertex="1">
                    <mxGeometry y="46" width="91.73709211678357" height="23" as="geometry"/>
                </mxCell>
                <mxCell id="20" value="FK" style="shape=partialRectangle;html=1;whiteSpace=wrap;connectable=0;fillColor=none;top=0;left=0;bottom=0;right=0;overflow=hidden;strokeColor=#909090;fontColor=#1A1A1A;" parent="19" vertex="1">
                    <mxGeometry width="30" height="23" as="geometry"/>
                </mxCell>
                <mxCell id="21" value="cid" style="shape=partialRectangle;html=1;whiteSpace=wrap;connectable=0;fillColor=none;top=0;left=0;bottom=0;right=0;overflow=hidden;align=left;strokeColor=#909090;fontColor=#1A1A1A;" parent="19" vertex="1">
                    <mxGeometry x="30" width="62" height="23" as="geometry"/>
                </mxCell>
                <mxCell id="22" value="" style="shape=partialRectangle;html=1;whiteSpace=wrap;collapsible=0;dropTarget=0;pointerEvents=0;fillColor=none;top=0;left=0;bottom=0;right=0;points=[[0,0.5],[1,0.5]];portConstraint=eastwest;strokeColor=#909090;fontColor=#1A1A1A;" parent="15" vertex="1">
                    <mxGeometry y="69" width="91.73709211678357" height="21" as="geometry"/>
                </mxCell>
                <mxCell id="23" value="FK" style="shape=partialRectangle;html=1;whiteSpace=wrap;connectable=0;fillColor=none;top=0;left=0;bottom=0;right=0;overflow=hidden;strokeColor=#909090;fontColor=#1A1A1A;" parent="22" vertex="1">
                    <mxGeometry width="30" height="21" as="geometry"/>
                </mxCell>
                <mxCell id="24" value="uid" style="shape=partialRectangle;html=1;whiteSpace=wrap;connectable=0;fillColor=none;top=0;left=0;bottom=0;right=0;overflow=hidden;align=left;strokeColor=#909090;fontColor=#1A1A1A;" parent="22" vertex="1">
                    <mxGeometry x="30" width="62" height="21" as="geometry"/>
                </mxCell>
                <mxCell id="25" style="shape=partialRectangle;html=1;whiteSpace=wrap;collapsible=0;dropTarget=0;pointerEvents=0;fillColor=none;top=0;left=0;bottom=0;right=0;points=[[0,0.5],[1,0.5]];portConstraint=eastwest;strokeColor=#909090;fontColor=#1A1A1A;" parent="15" vertex="1">
                    <mxGeometry y="90" width="91.73709211678357" height="22" as="geometry"/>
                </mxCell>
                <mxCell id="26" style="shape=partialRectangle;html=1;whiteSpace=wrap;connectable=0;fillColor=none;top=0;left=0;bottom=0;right=0;overflow=hidden;strokeColor=#909090;fontColor=#1A1A1A;" parent="25" vertex="1">
                    <mxGeometry width="30" height="22" as="geometry"/>
                </mxCell>
                <mxCell id="27" value="" style="shape=partialRectangle;html=1;whiteSpace=wrap;connectable=0;fillColor=none;top=0;left=0;bottom=0;right=0;overflow=hidden;align=left;strokeColor=#909090;fontColor=#1A1A1A;" parent="25" vertex="1">
                    <mxGeometry x="30" width="62" height="22" as="geometry"/>
                </mxCell>
                <mxCell id="40" value="Category" style="shape=table;startSize=20;container=1;collapsible=0;childLayout=tableLayout;fontStyle=1;align=center;flipH=1;fillColor=#F5AB50;strokeColor=#909090;fontColor=#1A1A1A;" parent="1" vertex="1">
                    <mxGeometry x="-91" y="112" width="91.73709211678357" height="112" as="geometry"/>
                </mxCell>
                <mxCell id="41" value="" style="shape=partialRectangle;html=1;whiteSpace=wrap;collapsible=0;dropTarget=0;pointerEvents=0;fillColor=none;top=0;left=0;bottom=0;right=0;points=[[0,0.5],[1,0.5]];portConstraint=eastwest;strokeColor=#909090;fontColor=#1A1A1A;" parent="40" vertex="1">
                    <mxGeometry y="20" width="91.73709211678357" height="26" as="geometry"/>
                </mxCell>
                <mxCell id="42" value="PK" style="shape=partialRectangle;html=1;whiteSpace=wrap;connectable=0;fillColor=none;top=0;left=0;bottom=0;right=0;overflow=hidden;strokeColor=#909090;fontColor=#1A1A1A;" parent="41" vertex="1">
                    <mxGeometry width="30" height="26" as="geometry"/>
                </mxCell>
                <mxCell id="43" value="cid" style="shape=partialRectangle;html=1;whiteSpace=wrap;connectable=0;fillColor=none;top=0;left=0;bottom=0;right=0;overflow=hidden;fontStyle=0;align=left;strokeColor=#909090;fontColor=#1A1A1A;" parent="41" vertex="1">
                    <mxGeometry x="30" width="62" height="26" as="geometry"/>
                </mxCell>
                <mxCell id="44" value="" style="shape=partialRectangle;html=1;whiteSpace=wrap;collapsible=0;dropTarget=0;pointerEvents=0;fillColor=none;top=0;left=0;bottom=0;right=0;points=[[0,0.5],[1,0.5]];portConstraint=eastwest;strokeColor=#909090;fontColor=#1A1A1A;" parent="40" vertex="1">
                    <mxGeometry y="46" width="91.73709211678357" height="23" as="geometry"/>
                </mxCell>
                <mxCell id="45" value="" style="shape=partialRectangle;html=1;whiteSpace=wrap;connectable=0;fillColor=none;top=0;left=0;bottom=0;right=0;overflow=hidden;strokeColor=#909090;fontColor=#1A1A1A;" parent="44" vertex="1">
                    <mxGeometry width="30" height="23" as="geometry"/>
                </mxCell>
                <mxCell id="46" value="name" style="shape=partialRectangle;html=1;whiteSpace=wrap;connectable=0;fillColor=none;top=0;left=0;bottom=0;right=0;overflow=hidden;align=left;strokeColor=#909090;fontColor=#1A1A1A;" parent="44" vertex="1">
                    <mxGeometry x="30" width="62" height="23" as="geometry"/>
                </mxCell>
                <mxCell id="47" value="" style="shape=partialRectangle;html=1;whiteSpace=wrap;collapsible=0;dropTarget=0;pointerEvents=0;fillColor=none;top=0;left=0;bottom=0;right=0;points=[[0,0.5],[1,0.5]];portConstraint=eastwest;strokeColor=#909090;fontColor=#1A1A1A;" parent="40" vertex="1">
                    <mxGeometry y="69" width="91.73709211678357" height="21" as="geometry"/>
                </mxCell>
                <mxCell id="48" value="" style="shape=partialRectangle;html=1;whiteSpace=wrap;connectable=0;fillColor=none;top=0;left=0;bottom=0;right=0;overflow=hidden;strokeColor=#909090;fontColor=#1A1A1A;" parent="47" vertex="1">
                    <mxGeometry width="30" height="21" as="geometry"/>
                </mxCell>
                <mxCell id="49" value="description" style="shape=partialRectangle;html=1;whiteSpace=wrap;connectable=0;fillColor=none;top=0;left=0;bottom=0;right=0;overflow=hidden;align=left;strokeColor=#909090;fontColor=#1A1A1A;" parent="47" vertex="1">
                    <mxGeometry x="30" width="62" height="21" as="geometry"/>
                </mxCell>
                <mxCell id="50" style="shape=partialRectangle;html=1;whiteSpace=wrap;collapsible=0;dropTarget=0;pointerEvents=0;fillColor=none;top=0;left=0;bottom=0;right=0;points=[[0,0.5],[1,0.5]];portConstraint=eastwest;strokeColor=#909090;fontColor=#1A1A1A;" parent="40" vertex="1">
                    <mxGeometry y="90" width="91.73709211678357" height="22" as="geometry"/>
                </mxCell>
                <mxCell id="51" style="shape=partialRectangle;html=1;whiteSpace=wrap;connectable=0;fillColor=none;top=0;left=0;bottom=0;right=0;overflow=hidden;strokeColor=#909090;fontColor=#1A1A1A;" parent="50" vertex="1">
                    <mxGeometry width="30" height="22" as="geometry"/>
                </mxCell>
                <mxCell id="52" value="status" style="shape=partialRectangle;html=1;whiteSpace=wrap;connectable=0;fillColor=none;top=0;left=0;bottom=0;right=0;overflow=hidden;align=left;strokeColor=#909090;fontColor=#1A1A1A;" parent="50" vertex="1">
                    <mxGeometry x="30" width="62" height="22" as="geometry"/>
                </mxCell>
                <mxCell id="72" style="jumpSize=6;orthogonalLoop=1;jettySize=auto;html=1;exitX=1;exitY=0.5;exitDx=0;exitDy=0;entryX=0;entryY=0.25;entryDx=0;entryDy=0;sourcePerimeterSpacing=0;targetPerimeterSpacing=0;strokeWidth=2;strokeColor=#182E3E;edgeStyle=orthogonalEdgeStyle;endArrow=ERzeroToMany;endFill=1;startArrow=ERzeroToOne;startFill=1;fontColor=#1A1A1A;labelBackgroundColor=#EEEEEE;" parent="1" source="41" target="fKlVXKqgQDIWuhwJHFet-24" edge="1">
                    <mxGeometry relative="1" as="geometry"/>
                </mxCell>
                <mxCell id="73" style="orthogonalLoop=1;jettySize=auto;html=1;exitX=0;exitY=0.5;exitDx=0;exitDy=0;startArrow=ERzeroToMany;startFill=1;labelBackgroundColor=#EEEEEE;strokeColor=#182E3E;fontColor=#1A1A1A;strokeWidth=2;endArrow=ERmandOne;endFill=0;edgeStyle=orthogonalEdgeStyle;entryX=1;entryY=0.5;entryDx=0;entryDy=0;" edge="1" parent="1" source="fKlVXKqgQDIWuhwJHFet-200" target="fKlVXKqgQDIWuhwJHFet-131">
                    <mxGeometry relative="1" as="geometry">
                        <mxPoint x="822" y="441" as="targetPoint"/>
                    </mxGeometry>
                </mxCell>
                <mxCell id="74" value="Datails_Sales" style="shape=table;startSize=20;container=1;collapsible=0;childLayout=tableLayout;fontStyle=1;align=center;flipH=1;fillColor=#F5AB50;strokeColor=#909090;fontColor=#1A1A1A;" vertex="1" parent="1">
                    <mxGeometry x="-148" y="268" width="91.73709211678357" height="138" as="geometry"/>
                </mxCell>
                <mxCell id="75" value="" style="shape=partialRectangle;html=1;whiteSpace=wrap;collapsible=0;dropTarget=0;pointerEvents=0;fillColor=none;top=0;left=0;bottom=0;right=0;points=[[0,0.5],[1,0.5]];portConstraint=eastwest;strokeColor=#909090;fontColor=#1A1A1A;" vertex="1" parent="74">
                    <mxGeometry y="20" width="91.73709211678357" height="26" as="geometry"/>
                </mxCell>
                <mxCell id="76" value="PK" style="shape=partialRectangle;html=1;whiteSpace=wrap;connectable=0;fillColor=none;top=0;left=0;bottom=0;right=0;overflow=hidden;strokeColor=#909090;fontColor=#1A1A1A;" vertex="1" parent="75">
                    <mxGeometry width="30" height="26" as="geometry"/>
                </mxCell>
                <mxCell id="77" value="dsid" style="shape=partialRectangle;html=1;whiteSpace=wrap;connectable=0;fillColor=none;top=0;left=0;bottom=0;right=0;overflow=hidden;fontStyle=0;align=left;strokeColor=#909090;fontColor=#1A1A1A;" vertex="1" parent="75">
                    <mxGeometry x="30" width="62" height="26" as="geometry"/>
                </mxCell>
                <mxCell id="91" value="" style="shape=partialRectangle;html=1;whiteSpace=wrap;collapsible=0;dropTarget=0;pointerEvents=0;fillColor=none;top=0;left=0;bottom=0;right=0;points=[[0,0.5],[1,0.5]];portConstraint=eastwest;strokeColor=#909090;fontColor=#1A1A1A;" vertex="1" parent="74">
                    <mxGeometry y="46" width="91.73709211678357" height="26" as="geometry"/>
                </mxCell>
                <mxCell id="92" value="FK" style="shape=partialRectangle;html=1;whiteSpace=wrap;connectable=0;fillColor=none;top=0;left=0;bottom=0;right=0;overflow=hidden;strokeColor=#909090;fontColor=#1A1A1A;" vertex="1" parent="91">
                    <mxGeometry width="30" height="26" as="geometry"/>
                </mxCell>
                <mxCell id="93" value="pid" style="shape=partialRectangle;html=1;whiteSpace=wrap;connectable=0;fillColor=none;top=0;left=0;bottom=0;right=0;overflow=hidden;fontStyle=0;align=left;strokeColor=#909090;fontColor=#1A1A1A;" vertex="1" parent="91">
                    <mxGeometry x="30" width="62" height="26" as="geometry"/>
                </mxCell>
                <mxCell id="78" value="" style="shape=partialRectangle;html=1;whiteSpace=wrap;collapsible=0;dropTarget=0;pointerEvents=0;fillColor=none;top=0;left=0;bottom=0;right=0;points=[[0,0.5],[1,0.5]];portConstraint=eastwest;strokeColor=#909090;fontColor=#1A1A1A;" vertex="1" parent="74">
                    <mxGeometry y="72" width="91.73709211678357" height="23" as="geometry"/>
                </mxCell>
                <mxCell id="79" value="FK" style="shape=partialRectangle;html=1;whiteSpace=wrap;connectable=0;fillColor=none;top=0;left=0;bottom=0;right=0;overflow=hidden;strokeColor=#909090;fontColor=#1A1A1A;" vertex="1" parent="78">
                    <mxGeometry width="30" height="23" as="geometry"/>
                </mxCell>
                <mxCell id="80" value="sid" style="shape=partialRectangle;html=1;whiteSpace=wrap;connectable=0;fillColor=none;top=0;left=0;bottom=0;right=0;overflow=hidden;align=left;strokeColor=#909090;fontColor=#1A1A1A;" vertex="1" parent="78">
                    <mxGeometry x="30" width="62" height="23" as="geometry"/>
                </mxCell>
                <mxCell id="81" value="" style="shape=partialRectangle;html=1;whiteSpace=wrap;collapsible=0;dropTarget=0;pointerEvents=0;fillColor=none;top=0;left=0;bottom=0;right=0;points=[[0,0.5],[1,0.5]];portConstraint=eastwest;strokeColor=#909090;fontColor=#1A1A1A;" vertex="1" parent="74">
                    <mxGeometry y="95" width="91.73709211678357" height="21" as="geometry"/>
                </mxCell>
                <mxCell id="82" value="" style="shape=partialRectangle;html=1;whiteSpace=wrap;connectable=0;fillColor=none;top=0;left=0;bottom=0;right=0;overflow=hidden;strokeColor=#909090;fontColor=#1A1A1A;" vertex="1" parent="81">
                    <mxGeometry width="30" height="21" as="geometry"/>
                </mxCell>
                <mxCell id="83" value="" style="shape=partialRectangle;html=1;whiteSpace=wrap;connectable=0;fillColor=none;top=0;left=0;bottom=0;right=0;overflow=hidden;align=left;strokeColor=#909090;fontColor=#1A1A1A;" vertex="1" parent="81">
                    <mxGeometry x="30" width="62" height="21" as="geometry"/>
                </mxCell>
                <mxCell id="84" style="shape=partialRectangle;html=1;whiteSpace=wrap;collapsible=0;dropTarget=0;pointerEvents=0;fillColor=none;top=0;left=0;bottom=0;right=0;points=[[0,0.5],[1,0.5]];portConstraint=eastwest;strokeColor=#909090;fontColor=#1A1A1A;" vertex="1" parent="74">
                    <mxGeometry y="116" width="91.73709211678357" height="22" as="geometry"/>
                </mxCell>
                <mxCell id="85" style="shape=partialRectangle;html=1;whiteSpace=wrap;connectable=0;fillColor=none;top=0;left=0;bottom=0;right=0;overflow=hidden;strokeColor=#909090;fontColor=#1A1A1A;" vertex="1" parent="84">
                    <mxGeometry width="30" height="22" as="geometry"/>
                </mxCell>
                <mxCell id="86" value="" style="shape=partialRectangle;html=1;whiteSpace=wrap;connectable=0;fillColor=none;top=0;left=0;bottom=0;right=0;overflow=hidden;align=left;strokeColor=#909090;fontColor=#1A1A1A;" vertex="1" parent="84">
                    <mxGeometry x="30" width="62" height="22" as="geometry"/>
                </mxCell>
                <mxCell id="90" style="edgeStyle=orthogonalEdgeStyle;rounded=1;orthogonalLoop=1;jettySize=auto;html=1;exitX=0;exitY=0.5;exitDx=0;exitDy=0;entryX=1;entryY=0.5;entryDx=0;entryDy=0;fontColor=#1A1A1A;startArrow=ERmandOne;startFill=0;endArrow=ERoneToMany;endFill=0;strokeColor=#182E3E;strokeWidth=2;" edge="1" parent="1" source="16" target="78">
                    <mxGeometry relative="1" as="geometry"/>
                </mxCell>
                <mxCell id="97" style="edgeStyle=orthogonalEdgeStyle;rounded=1;orthogonalLoop=1;jettySize=auto;html=1;exitX=0;exitY=0.5;exitDx=0;exitDy=0;fontColor=#1A1A1A;startArrow=ERmandOne;startFill=0;endArrow=ERoneToMany;endFill=0;strokeColor=#182E3E;strokeWidth=2;entryX=0;entryY=0.5;entryDx=0;entryDy=0;" edge="1" parent="1" source="91" target="fKlVXKqgQDIWuhwJHFet-25">
                    <mxGeometry relative="1" as="geometry">
                        <mxPoint x="-102" y="16" as="targetPoint"/>
                    </mxGeometry>
                </mxCell>
                <mxCell id="98" style="edgeStyle=orthogonalEdgeStyle;rounded=1;orthogonalLoop=1;jettySize=auto;html=1;exitX=0;exitY=0.5;exitDx=0;exitDy=0;fontColor=#1A1A1A;startArrow=ERzeroToOne;startFill=1;endArrow=ERoneToMany;endFill=0;strokeColor=#182E3E;strokeWidth=2;entryX=0.992;entryY=0.565;entryDx=0;entryDy=0;entryPerimeter=0;" edge="1" parent="1" source="fKlVXKqgQDIWuhwJHFet-253" target="19">
                    <mxGeometry relative="1" as="geometry">
                        <mxPoint x="230" y="305" as="targetPoint"/>
                    </mxGeometry>
                </mxCell>
                <mxCell id="99" style="edgeStyle=orthogonalEdgeStyle;rounded=1;orthogonalLoop=1;jettySize=auto;html=1;exitX=0;exitY=0.5;exitDx=0;exitDy=0;entryX=1;entryY=0.5;entryDx=0;entryDy=0;fontColor=#1A1A1A;startArrow=ERmandOne;startFill=0;endArrow=ERoneToMany;endFill=0;strokeColor=#182E3E;strokeWidth=2;" edge="1" parent="1" source="fKlVXKqgQDIWuhwJHFet-74" target="22">
                    <mxGeometry relative="1" as="geometry"/>
                </mxCell>
                <mxCell id="100" value="Buy" style="shape=table;startSize=20;container=1;collapsible=0;childLayout=tableLayout;fontStyle=1;align=center;flipH=1;fillColor=#F5AB50;strokeColor=#909090;fontColor=#1A1A1A;" vertex="1" parent="1">
                    <mxGeometry x="728" y="-5" width="91.73709211678357" height="89.80732218424478" as="geometry"/>
                </mxCell>
                <mxCell id="101" value="" style="shape=partialRectangle;html=1;whiteSpace=wrap;collapsible=0;dropTarget=0;pointerEvents=0;fillColor=none;top=0;left=0;bottom=0;right=0;points=[[0,0.5],[1,0.5]];portConstraint=eastwest;strokeColor=#909090;fontColor=#1A1A1A;" vertex="1" parent="100">
                    <mxGeometry y="20" width="91.73709211678357" height="26" as="geometry"/>
                </mxCell>
                <mxCell id="102" value="PK" style="shape=partialRectangle;html=1;whiteSpace=wrap;connectable=0;fillColor=none;top=0;left=0;bottom=0;right=0;overflow=hidden;strokeColor=#909090;fontColor=#1A1A1A;" vertex="1" parent="101">
                    <mxGeometry width="30" height="26" as="geometry"/>
                </mxCell>
                <mxCell id="103" value="bid" style="shape=partialRectangle;html=1;whiteSpace=wrap;connectable=0;fillColor=none;top=0;left=0;bottom=0;right=0;overflow=hidden;fontStyle=0;align=left;strokeColor=#909090;fontColor=#1A1A1A;" vertex="1" parent="101">
                    <mxGeometry x="30" width="62" height="26" as="geometry"/>
                </mxCell>
                <mxCell id="125" style="shape=partialRectangle;html=1;whiteSpace=wrap;collapsible=0;dropTarget=0;pointerEvents=0;fillColor=none;top=0;left=0;bottom=0;right=0;points=[[0,0.5],[1,0.5]];portConstraint=eastwest;strokeColor=#909090;fontColor=#1A1A1A;" vertex="1" parent="100">
                    <mxGeometry y="46" width="91.73709211678357" height="22" as="geometry"/>
                </mxCell>
                <mxCell id="126" value="FK" style="shape=partialRectangle;html=1;whiteSpace=wrap;connectable=0;fillColor=none;top=0;left=0;bottom=0;right=0;overflow=hidden;strokeColor=#909090;fontColor=#1A1A1A;" vertex="1" parent="125">
                    <mxGeometry width="30" height="22" as="geometry"/>
                </mxCell>
                <mxCell id="127" value="pid" style="shape=partialRectangle;html=1;whiteSpace=wrap;connectable=0;fillColor=none;top=0;left=0;bottom=0;right=0;overflow=hidden;align=left;strokeColor=#909090;fontColor=#1A1A1A;" vertex="1" parent="125">
                    <mxGeometry x="30" width="62" height="22" as="geometry"/>
                </mxCell>
                <mxCell id="110" style="shape=partialRectangle;html=1;whiteSpace=wrap;collapsible=0;dropTarget=0;pointerEvents=0;fillColor=none;top=0;left=0;bottom=0;right=0;points=[[0,0.5],[1,0.5]];portConstraint=eastwest;strokeColor=#909090;fontColor=#1A1A1A;" vertex="1" parent="100">
                    <mxGeometry y="68" width="91.73709211678357" height="22" as="geometry"/>
                </mxCell>
                <mxCell id="111" value="FK" style="shape=partialRectangle;html=1;whiteSpace=wrap;connectable=0;fillColor=none;top=0;left=0;bottom=0;right=0;overflow=hidden;strokeColor=#909090;fontColor=#1A1A1A;" vertex="1" parent="110">
                    <mxGeometry width="30" height="22" as="geometry"/>
                </mxCell>
                <mxCell id="112" value="uid" style="shape=partialRectangle;html=1;whiteSpace=wrap;connectable=0;fillColor=none;top=0;left=0;bottom=0;right=0;overflow=hidden;align=left;strokeColor=#909090;fontColor=#1A1A1A;" vertex="1" parent="110">
                    <mxGeometry x="30" width="62" height="22" as="geometry"/>
                </mxCell>
                <mxCell id="113" value="Datails_Buy" style="shape=table;startSize=20;container=1;collapsible=0;childLayout=tableLayout;fontStyle=1;align=center;flipH=1;fillColor=#F5AB50;strokeColor=#909090;fontColor=#1A1A1A;" vertex="1" parent="1">
                    <mxGeometry x="529" y="-192" width="91.73709211678357" height="155.80732218424478" as="geometry"/>
                </mxCell>
                <mxCell id="114" value="" style="shape=partialRectangle;html=1;whiteSpace=wrap;collapsible=0;dropTarget=0;pointerEvents=0;fillColor=none;top=0;left=0;bottom=0;right=0;points=[[0,0.5],[1,0.5]];portConstraint=eastwest;strokeColor=#909090;fontColor=#1A1A1A;" vertex="1" parent="113">
                    <mxGeometry y="20" width="91.73709211678357" height="26" as="geometry"/>
                </mxCell>
                <mxCell id="115" value="PK" style="shape=partialRectangle;html=1;whiteSpace=wrap;connectable=0;fillColor=none;top=0;left=0;bottom=0;right=0;overflow=hidden;strokeColor=#909090;fontColor=#1A1A1A;" vertex="1" parent="114">
                    <mxGeometry width="30" height="26" as="geometry"/>
                </mxCell>
                <mxCell id="116" value="dbid" style="shape=partialRectangle;html=1;whiteSpace=wrap;connectable=0;fillColor=none;top=0;left=0;bottom=0;right=0;overflow=hidden;fontStyle=0;align=left;strokeColor=#909090;fontColor=#1A1A1A;" vertex="1" parent="114">
                    <mxGeometry x="30" width="62" height="26" as="geometry"/>
                </mxCell>
                <mxCell id="117" style="shape=partialRectangle;html=1;whiteSpace=wrap;collapsible=0;dropTarget=0;pointerEvents=0;fillColor=none;top=0;left=0;bottom=0;right=0;points=[[0,0.5],[1,0.5]];portConstraint=eastwest;strokeColor=#909090;fontColor=#1A1A1A;" vertex="1" parent="113">
                    <mxGeometry y="46" width="91.73709211678357" height="22" as="geometry"/>
                </mxCell>
                <mxCell id="118" value="FK" style="shape=partialRectangle;html=1;whiteSpace=wrap;connectable=0;fillColor=none;top=0;left=0;bottom=0;right=0;overflow=hidden;strokeColor=#909090;fontColor=#1A1A1A;" vertex="1" parent="117">
                    <mxGeometry width="30" height="22" as="geometry"/>
                </mxCell>
                <mxCell id="119" value="bid" style="shape=partialRectangle;html=1;whiteSpace=wrap;connectable=0;fillColor=none;top=0;left=0;bottom=0;right=0;overflow=hidden;align=left;strokeColor=#909090;fontColor=#1A1A1A;" vertex="1" parent="117">
                    <mxGeometry x="30" width="62" height="22" as="geometry"/>
                </mxCell>
                <mxCell id="120" style="shape=partialRectangle;html=1;whiteSpace=wrap;collapsible=0;dropTarget=0;pointerEvents=0;fillColor=none;top=0;left=0;bottom=0;right=0;points=[[0,0.5],[1,0.5]];portConstraint=eastwest;strokeColor=#909090;fontColor=#1A1A1A;" vertex="1" parent="113">
                    <mxGeometry y="68" width="91.73709211678357" height="22" as="geometry"/>
                </mxCell>
                <mxCell id="121" value="FK" style="shape=partialRectangle;html=1;whiteSpace=wrap;connectable=0;fillColor=none;top=0;left=0;bottom=0;right=0;overflow=hidden;strokeColor=#909090;fontColor=#1A1A1A;" vertex="1" parent="120">
                    <mxGeometry width="30" height="22" as="geometry"/>
                </mxCell>
                <mxCell id="122" value="pid" style="shape=partialRectangle;html=1;whiteSpace=wrap;connectable=0;fillColor=none;top=0;left=0;bottom=0;right=0;overflow=hidden;align=left;strokeColor=#909090;fontColor=#1A1A1A;" vertex="1" parent="120">
                    <mxGeometry x="30" width="62" height="22" as="geometry"/>
                </mxCell>
                <mxCell id="181" style="shape=partialRectangle;html=1;whiteSpace=wrap;collapsible=0;dropTarget=0;pointerEvents=0;fillColor=none;top=0;left=0;bottom=0;right=0;points=[[0,0.5],[1,0.5]];portConstraint=eastwest;strokeColor=#909090;fontColor=#1A1A1A;" vertex="1" parent="113">
                    <mxGeometry y="90" width="91.73709211678357" height="22" as="geometry"/>
                </mxCell>
                <mxCell id="182" style="shape=partialRectangle;html=1;whiteSpace=wrap;connectable=0;fillColor=none;top=0;left=0;bottom=0;right=0;overflow=hidden;strokeColor=#909090;fontColor=#1A1A1A;" vertex="1" parent="181">
                    <mxGeometry width="30" height="22" as="geometry"/>
                </mxCell>
                <mxCell id="183" value="amount" style="shape=partialRectangle;html=1;whiteSpace=wrap;connectable=0;fillColor=none;top=0;left=0;bottom=0;right=0;overflow=hidden;align=left;strokeColor=#909090;fontColor=#1A1A1A;" vertex="1" parent="181">
                    <mxGeometry x="30" width="62" height="22" as="geometry"/>
                </mxCell>
                <mxCell id="165" style="shape=partialRectangle;html=1;whiteSpace=wrap;collapsible=0;dropTarget=0;pointerEvents=0;fillColor=none;top=0;left=0;bottom=0;right=0;points=[[0,0.5],[1,0.5]];portConstraint=eastwest;strokeColor=#909090;fontColor=#1A1A1A;" vertex="1" parent="113">
                    <mxGeometry y="112" width="91.73709211678357" height="22" as="geometry"/>
                </mxCell>
                <mxCell id="166" value="" style="shape=partialRectangle;html=1;whiteSpace=wrap;connectable=0;fillColor=none;top=0;left=0;bottom=0;right=0;overflow=hidden;strokeColor=#909090;fontColor=#1A1A1A;" vertex="1" parent="165">
                    <mxGeometry width="30" height="22" as="geometry"/>
                </mxCell>
                <mxCell id="167" value="price" style="shape=partialRectangle;html=1;whiteSpace=wrap;connectable=0;fillColor=none;top=0;left=0;bottom=0;right=0;overflow=hidden;align=left;strokeColor=#909090;fontColor=#1A1A1A;" vertex="1" parent="165">
                    <mxGeometry x="30" width="62" height="22" as="geometry"/>
                </mxCell>
                <mxCell id="184" style="shape=partialRectangle;html=1;whiteSpace=wrap;collapsible=0;dropTarget=0;pointerEvents=0;fillColor=none;top=0;left=0;bottom=0;right=0;points=[[0,0.5],[1,0.5]];portConstraint=eastwest;strokeColor=#909090;fontColor=#1A1A1A;" vertex="1" parent="113">
                    <mxGeometry y="134" width="91.73709211678357" height="22" as="geometry"/>
                </mxCell>
                <mxCell id="185" value="" style="shape=partialRectangle;html=1;whiteSpace=wrap;connectable=0;fillColor=none;top=0;left=0;bottom=0;right=0;overflow=hidden;strokeColor=#909090;fontColor=#1A1A1A;" vertex="1" parent="184">
                    <mxGeometry width="30" height="22" as="geometry"/>
                </mxCell>
                <mxCell id="186" value="status" style="shape=partialRectangle;html=1;whiteSpace=wrap;connectable=0;fillColor=none;top=0;left=0;bottom=0;right=0;overflow=hidden;align=left;strokeColor=#909090;fontColor=#1A1A1A;" vertex="1" parent="184">
                    <mxGeometry x="30" width="62" height="22" as="geometry"/>
                </mxCell>
                <mxCell id="123" style="edgeStyle=orthogonalEdgeStyle;rounded=1;orthogonalLoop=1;jettySize=auto;html=1;exitX=0;exitY=0.5;exitDx=0;exitDy=0;entryX=1;entryY=0.364;entryDx=0;entryDy=0;entryPerimeter=0;fontColor=#1A1A1A;startArrow=ERmandOne;startFill=0;endArrow=ERoneToMany;endFill=0;strokeColor=#182E3E;strokeWidth=2;" edge="1" parent="1" source="101" target="117">
                    <mxGeometry relative="1" as="geometry"/>
                </mxCell>
                <mxCell id="129" style="edgeStyle=orthogonalEdgeStyle;rounded=1;orthogonalLoop=1;jettySize=auto;html=1;exitX=0;exitY=0.5;exitDx=0;exitDy=0;fontColor=#1A1A1A;startArrow=ERoneToMany;startFill=0;endArrow=ERmandOne;endFill=0;strokeColor=#182E3E;strokeWidth=2;" edge="1" parent="1" source="125" target="fKlVXKqgQDIWuhwJHFet-141">
                    <mxGeometry relative="1" as="geometry"/>
                </mxCell>
                <mxCell id="131" style="edgeStyle=orthogonalEdgeStyle;rounded=1;orthogonalLoop=1;jettySize=auto;html=1;exitX=0;exitY=0.5;exitDx=0;exitDy=0;entryX=1;entryY=0.5;entryDx=0;entryDy=0;fontColor=#1A1A1A;startArrow=ERoneToMany;startFill=0;endArrow=ERmandOne;endFill=0;strokeColor=#182E3E;strokeWidth=2;" edge="1" parent="1" source="120" target="fKlVXKqgQDIWuhwJHFet-25">
                    <mxGeometry relative="1" as="geometry">
                        <Array as="points">
                            <mxPoint x="263" y="-113"/>
                            <mxPoint x="263" y="84"/>
                        </Array>
                    </mxGeometry>
                </mxCell>
                <mxCell id="164" style="edgeStyle=orthogonalEdgeStyle;rounded=1;orthogonalLoop=1;jettySize=auto;html=1;exitX=0;exitY=0.5;exitDx=0;exitDy=0;entryX=1;entryY=0.5;entryDx=0;entryDy=0;fontColor=#1A1A1A;startArrow=ERoneToMany;startFill=0;endArrow=ERmandOne;endFill=0;strokeColor=#182E3E;strokeWidth=2;" edge="1" parent="1" source="110" target="fKlVXKqgQDIWuhwJHFet-74">
                    <mxGeometry relative="1" as="geometry"/>
                </mxCell>
            </root>
        </mxGraphModel>
    </diagram>
</mxfile>